<?xml version="1.0" encoding="UTF-8"?>
<svg version="1.1" xmlns="http://www.w3.org/2000/svg" width="500" height="500">
<path d="M0 0 C0 2.31 0 4.62 0 7 C-1.32 7 -2.64 7 -4 7 C-3.67 8.65 -3.34 10.3 -3 12 C-5.31 12 -7.62 12 -10 12 C-10 13.98 -10 15.96 -10 18 C-11.65 18 -13.3 18 -15 18 C-15 20.31 -15 22.62 -15 25 C-13.35 25 -11.7 25 -10 25 C-10 28.96 -10 32.92 -10 37 C-11.65 37 -13.3 37 -15 37 C-15 38.65 -15 40.3 -15 42 C-18.3 42 -21.6 42 -25 42 C-25.33 43.98 -25.66 45.96 -26 48 C-31.94 48 -37.88 48 -44 48 C-44 46.02 -44 44.04 -44 42 C-45.98 42 -47.96 42 -50 42 C-50 40.35 -50 38.7 -50 37 C-51.65 36.67 -53.3 36.34 -55 36 C-55.103125 35.360625 -55.20625 34.72125 -55.3125 34.0625 C-55.539375 33.381875 -55.76625 32.70125 -56 32 C-56.99 31.67 -57.98 31.34 -59 31 C-59 29.68 -59 28.36 -59 27 C-62.3 27 -65.6 27 -69 27 C-69.33 28.65 -69.66 30.3 -70 32 C-72.31 32 -74.62 32 -77 32 C-77.33 33.65 -77.66 35.3 -78 37 C-79.32 37 -80.64 37 -82 37 C-82 37.99 -82 38.98 -82 40 C-80.68 40 -79.36 40 -78 40 C-77.9175 40.61875 -77.835 41.2375 -77.75 41.875 C-77.22739701 44.13953908 -77.22739701 44.13953908 -75.25 44.875 C-71.33783805 46.83108097 -69.1632916 50.41369327 -66.625 53.875 C-65.30851503 58.3510489 -66.24437001 62.37091298 -68.15234375 66.484375 C-71.40481449 72.40481449 -71.40481449 72.40481449 -73 74 C-73.36760731 76.32817964 -73.70241581 78.6618385 -74 81 C-72.02 81 -70.04 81 -68 81 C-68 85.29 -68 89.58 -68 94 C-65.03 94.495 -65.03 94.495 -62 95 C-62 98.3 -62 101.6 -62 105 C-60.35 105 -58.7 105 -57 105 C-57 123.48 -57 141.96 -57 161 C-58.65 161.33 -60.3 161.66 -62 162 C-62 167.28 -62 172.56 -62 178 C-63.98 178 -65.96 178 -68 178 C-68 180.64 -68 183.28 -68 186 C-69.98 186 -71.96 186 -74 186 C-74 189.63 -74 193.26 -74 197 C-76.31 197 -78.62 197 -81 197 C-81.33 199.64 -81.66 202.28 -82 205 C-84.31 205 -86.62 205 -89 205 C-88.9690625 206.423125 -88.9690625 206.423125 -88.9375 207.875 C-89 211 -89 211 -90 213 C-92.31 213 -94.62 213 -97 213 C-97 214.98 -97 216.96 -97 219 C-100.96 219 -104.92 219 -109 219 C-109 220.98 -109 222.96 -109 225 C-113.62 225 -118.24 225 -123 225 C-123 226.65 -123 228.3 -123 230 C-125.53884599 231.26942299 -127.31050291 231.12701165 -130.15234375 231.12939453 C-131.22685791 231.13254669 -132.30137207 231.13569885 -133.40844727 231.13894653 C-134.57303467 231.1369223 -135.73762207 231.13489807 -136.9375 231.1328125 C-138.72401978 231.13424759 -138.72401978 231.13424759 -140.54663086 231.13571167 C-143.06852267 231.13639315 -145.59041623 231.1345411 -148.11230469 231.13037109 C-151.98376384 231.12502243 -155.85510698 231.13031721 -159.7265625 231.13671875 C-162.17187526 231.13605796 -164.61718794 231.13477679 -167.0625 231.1328125 C-168.2270874 231.13483673 -169.3916748 231.13686096 -170.59155273 231.13894653 C-171.66606689 231.13579437 -172.74058105 231.13264221 -173.84765625 231.12939453 C-174.79648682 231.12859894 -175.74531738 231.12780334 -176.72290039 231.12698364 C-179 231 -179 231 -181 230 C-181 228.35 -181 226.7 -181 225 C-184.63 225 -188.26 225 -192 225 C-192 223.35 -192 221.7 -192 220 C-194.31 219.67 -196.62 219.34 -199 219 C-199 218.01 -199 217.02 -199 216 C-201.64 216 -204.28 216 -207 216 C-207.33 215.01 -207.66 214.02 -208 213 C-209.98 212.67 -211.96 212.34 -214 212 C-214 210.02 -214 208.04 -214 206 C-216.31 206 -218.62 206 -221 206 C-222.35439668 203.29120665 -222.06501451 200.99066732 -222 198 C-223.2065625 198.0309375 -223.2065625 198.0309375 -224.4375 198.0625 C-227 198 -227 198 -228 197 C-228.07179964 195.48071962 -228.08392007 193.95832518 -228.0625 192.4375 C-228.05347656 191.61121094 -228.04445312 190.78492188 -228.03515625 189.93359375 C-228.02355469 189.29550781 -228.01195312 188.65742188 -228 188 C-229.98 188 -231.96 188 -234 188 C-234 185.36 -234 182.72 -234 180 C-235.2065625 180.0309375 -235.2065625 180.0309375 -236.4375 180.0625 C-239 180 -239 180 -240 179 C-240.07319621 176.30345146 -240.09242537 173.63308542 -240.0625 170.9375 C-240.05798828 170.17888672 -240.05347656 169.42027344 -240.04882812 168.63867188 C-240.0370068 166.75908129 -240.01907078 164.87953101 -240 163 C-241.65 162.67 -243.3 162.34 -245 162 C-246.25084553 149.84110316 -245.91709369 137.8205985 -245.5625 125.625 C-245.50914258 123.61720396 -245.45640373 121.60939138 -245.40429688 119.6015625 C-245.27665265 114.7341552 -245.14067164 109.8670475 -245 105 C-243.35 105 -241.7 105 -240 105 C-240.020625 103.88625 -240.04125 102.7725 -240.0625 101.625 C-240 98 -240 98 -239 96 C-237.35 96 -235.7 96 -234 96 C-234.020625 94.80375 -234.04125 93.6075 -234.0625 92.375 C-234.06882571 88.81995131 -233.69888875 85.49444376 -233 82 C-231.35 82 -229.7 82 -228 82 C-228.020625 80.700625 -228.04125 79.40125 -228.0625 78.0625 C-228.08399454 76.70834367 -228.07148199 75.35243917 -228 74 C-227 73 -227 73 -223.9375 72.9375 C-222.968125 72.958125 -221.99875 72.97875 -221 73 C-221 70.69 -221 68.38 -221 66 C-218.69 66 -216.38 66 -214 66 C-214.020625 65.195625 -214.04125 64.39125 -214.0625 63.5625 C-214 61 -214 61 -213 60 C-211.33382885 59.95936168 -209.66611905 59.957279 -208 60 C-208 58.68 -208 57.36 -208 56 C-205.36 56 -202.72 56 -200 56 C-200 54.35 -200 52.7 -200 51 C-197.36 50.67 -194.72 50.34 -192 50 C-192 48.68 -192 47.36 -192 46 C-188.27569643 45.30710631 -184.78916254 44.88855404 -181 45 C-181 43.35 -181 41.7 -181 40 C-166.15 40 -151.3 40 -136 40 C-135.34 37.69 -134.68 35.38 -134 33 C-132 30.5625 -132 30.5625 -130 29 C-129.34 29 -128.68 29 -128 29 C-128 28.01 -128 27.02 -128 26 C-126.68 26 -125.36 26 -124 26 C-123.34 24.68 -122.68 23.36 -122 22 C-113.83952201 22.1985957 -107.35642804 24.57458419 -100 28 C-100 27.34 -100 26.68 -100 26 C-98.68 26 -97.36 26 -96 26 C-96 24.35 -96 22.7 -96 21 C-94.68 21 -93.36 21 -92 21 C-92 19.68 -92 18.36 -92 17 C-90.35 16.67 -88.7 16.34 -87 16 C-87 14.68 -87 13.36 -87 12 C-86.01 12 -85.02 12 -84 12 C-83.67 10.35 -83.34 8.7 -83 7 C-73.1 7 -63.2 7 -53 7 C-52.67 7.99 -52.34 8.98 -52 10 C-51.79375 9.360625 -51.5875 8.72125 -51.375 8.0625 C-50 6 -50 6 -46.875 5.25 C-45.92625 5.1675 -44.9775 5.085 -44 5 C-44 3.35 -44 1.7 -44 0 C-38.06 0 -32.12 0 -26 0 C-25.67 1.65 -25.34 3.3 -25 5 C-24.34 5 -23.68 5 -23 5 C-22.67 3.35 -22.34 1.7 -22 0 C-19.27119539 -0.19555932 -16.54228931 -0.38170447 -13.8125 -0.5625 C-13.04357422 -0.61857422 -12.27464844 -0.67464844 -11.48242188 -0.73242188 C-7.45938647 -0.99141557 -3.93927628 -1.06573607 0 0 Z " fill="#252525" transform="translate(402,128)"/>
<path d="M0 0 C0 2.31 0 4.62 0 7 C-1.32 7 -2.64 7 -4 7 C-3.67 8.65 -3.34 10.3 -3 12 C-5.31 12 -7.62 12 -10 12 C-10 13.98 -10 15.96 -10 18 C-11.65 18 -13.3 18 -15 18 C-15 20.31 -15 22.62 -15 25 C-13.35 25 -11.7 25 -10 25 C-10 28.96 -10 32.92 -10 37 C-11.65 37 -13.3 37 -15 37 C-15 38.65 -15 40.3 -15 42 C-18.3 42 -21.6 42 -25 42 C-25.33 43.98 -25.66 45.96 -26 48 C-31.94 48 -37.88 48 -44 48 C-44 46.02 -44 44.04 -44 42 C-45.98 42 -47.96 42 -50 42 C-50 40.35 -50 38.7 -50 37 C-51.65 36.67 -53.3 36.34 -55 36 C-55.103125 35.360625 -55.20625 34.72125 -55.3125 34.0625 C-55.539375 33.381875 -55.76625 32.70125 -56 32 C-56.99 31.67 -57.98 31.34 -59 31 C-59 29.68 -59 28.36 -59 27 C-62.3 27 -65.6 27 -69 27 C-69.33 28.65 -69.66 30.3 -70 32 C-72.31 32 -74.62 32 -77 32 C-77.33 33.65 -77.66 35.3 -78 37 C-79.32 37 -80.64 37 -82 37 C-82 37.99 -82 38.98 -82 40 C-80.68 40 -79.36 40 -78 40 C-77.9175 40.61875 -77.835 41.2375 -77.75 41.875 C-77.22739701 44.13953908 -77.22739701 44.13953908 -75.25 44.875 C-71.33783805 46.83108097 -69.1632916 50.41369327 -66.625 53.875 C-65.30851503 58.3510489 -66.24437001 62.37091298 -68.15234375 66.484375 C-71.40481449 72.40481449 -71.40481449 72.40481449 -73 74 C-73.36760731 76.32817964 -73.70241581 78.6618385 -74 81 C-72.02 81 -70.04 81 -68 81 C-68 85.29 -68 89.58 -68 94 C-65.03 94.495 -65.03 94.495 -62 95 C-62 98.3 -62 101.6 -62 105 C-60.35 105 -58.7 105 -57 105 C-57 123.48 -57 141.96 -57 161 C-58.65 161.33 -60.3 161.66 -62 162 C-62 167.28 -62 172.56 -62 178 C-63.98 178 -65.96 178 -68 178 C-68 180.64 -68 183.28 -68 186 C-69.98 186 -71.96 186 -74 186 C-74 189.63 -74 193.26 -74 197 C-76.31 197 -78.62 197 -81 197 C-81.33 199.64 -81.66 202.28 -82 205 C-84.31 205 -86.62 205 -89 205 C-88.9690625 206.423125 -88.9690625 206.423125 -88.9375 207.875 C-89 211 -89 211 -90 213 C-92.31 213 -94.62 213 -97 213 C-97 214.98 -97 216.96 -97 219 C-100.96 219 -104.92 219 -109 219 C-109 220.98 -109 222.96 -109 225 C-113.62 225 -118.24 225 -123 225 C-123 226.65 -123 228.3 -123 230 C-125.53884599 231.26942299 -127.31050291 231.12701165 -130.15234375 231.12939453 C-131.22685791 231.13254669 -132.30137207 231.13569885 -133.40844727 231.13894653 C-134.57303467 231.1369223 -135.73762207 231.13489807 -136.9375 231.1328125 C-138.72401978 231.13424759 -138.72401978 231.13424759 -140.54663086 231.13571167 C-143.06852267 231.13639315 -145.59041623 231.1345411 -148.11230469 231.13037109 C-151.98376384 231.12502243 -155.85510698 231.13031721 -159.7265625 231.13671875 C-162.17187526 231.13605796 -164.61718794 231.13477679 -167.0625 231.1328125 C-168.2270874 231.13483673 -169.3916748 231.13686096 -170.59155273 231.13894653 C-171.66606689 231.13579437 -172.74058105 231.13264221 -173.84765625 231.12939453 C-174.79648682 231.12859894 -175.74531738 231.12780334 -176.72290039 231.12698364 C-179 231 -179 231 -181 230 C-181 228.35 -181 226.7 -181 225 C-184.63 225 -188.26 225 -192 225 C-192 223.35 -192 221.7 -192 220 C-194.31 219.67 -196.62 219.34 -199 219 C-199 218.01 -199 217.02 -199 216 C-201.64 216 -204.28 216 -207 216 C-207.33 215.01 -207.66 214.02 -208 213 C-209.98 212.67 -211.96 212.34 -214 212 C-214 210.02 -214 208.04 -214 206 C-216.31 206 -218.62 206 -221 206 C-222.35439668 203.29120665 -222.06501451 200.99066732 -222 198 C-223.2065625 198.0309375 -223.2065625 198.0309375 -224.4375 198.0625 C-227 198 -227 198 -228 197 C-228.07179964 195.48071962 -228.08392007 193.95832518 -228.0625 192.4375 C-228.05347656 191.61121094 -228.04445312 190.78492188 -228.03515625 189.93359375 C-228.02355469 189.29550781 -228.01195312 188.65742188 -228 188 C-229.98 188 -231.96 188 -234 188 C-234 185.36 -234 182.72 -234 180 C-235.2065625 180.0309375 -235.2065625 180.0309375 -236.4375 180.0625 C-239 180 -239 180 -240 179 C-240.07319621 176.30345146 -240.09242537 173.63308542 -240.0625 170.9375 C-240.05798828 170.17888672 -240.05347656 169.42027344 -240.04882812 168.63867188 C-240.0370068 166.75908129 -240.01907078 164.87953101 -240 163 C-241.65 162.67 -243.3 162.34 -245 162 C-246.25084553 149.84110316 -245.91709369 137.8205985 -245.5625 125.625 C-245.50914258 123.61720396 -245.45640373 121.60939138 -245.40429688 119.6015625 C-245.27665265 114.7341552 -245.14067164 109.8670475 -245 105 C-243.35 105 -241.7 105 -240 105 C-240.020625 103.88625 -240.04125 102.7725 -240.0625 101.625 C-240 98 -240 98 -239 96 C-237.35 96 -235.7 96 -234 96 C-234.020625 94.80375 -234.04125 93.6075 -234.0625 92.375 C-234.06882571 88.81995131 -233.69888875 85.49444376 -233 82 C-231.35 82 -229.7 82 -228 82 C-228.020625 80.700625 -228.04125 79.40125 -228.0625 78.0625 C-228.08399454 76.70834367 -228.07148199 75.35243917 -228 74 C-227 73 -227 73 -223.9375 72.9375 C-222.968125 72.958125 -221.99875 72.97875 -221 73 C-221 71.02 -221 69.04 -221 67 C-218.36 67 -215.72 67 -213 67 C-213 65.35 -213 63.7 -213 62 C-211.02 62 -209.04 62 -207 62 C-207 63.65 -207 65.3 -207 67 C-209.475 67.495 -209.475 67.495 -212 68 C-212.33 69.98 -212.66 71.96 -213 74 C-215.31 74 -217.62 74 -220 74 C-220 76.97 -220 79.94 -220 83 C-222.31 83 -224.62 83 -227 83 C-227 87.62 -227 92.24 -227 97 C-228.65 97 -230.3 97 -232 97 C-232 99.97 -232 102.94 -232 106 C-234.31 106 -236.62 106 -239 106 C-238.67 124.15 -238.34 142.3 -238 161 C-236.35 161.33 -234.7 161.66 -233 162 C-233 167.61 -233 173.22 -233 179 C-231.02 179 -229.04 179 -227 179 C-227 181.64 -227 184.28 -227 187 C-225.02 187 -223.04 187 -221 187 C-221 184.03 -221 181.06 -221 178 C-222.98 178 -224.96 178 -227 178 C-227 172.72 -227 167.44 -227 162 C-225.02 162 -223.04 162 -221 162 C-221 165.96 -221 169.92 -221 174 C-219.02 174 -217.04 174 -215 174 C-214.67 175.65 -214.34 177.3 -214 179 C-211.69 178.67 -209.38 178.34 -207 178 C-207 179.65 -207 181.3 -207 183 C-204.03 183 -201.06 183 -198 183 C-197.67 184.98 -197.34 186.96 -197 189 C-178.85 189 -160.7 189 -142 189 C-142 186.69 -142 184.38 -142 182 C-135.07 182 -128.14 182 -121 182 C-121 179.69 -121 177.38 -121 175 C-118.03 175 -115.06 175 -112 175 C-112 173.02 -112 171.04 -112 169 C-109.69 169 -107.38 169 -105 169 C-105 166.36 -105 163.72 -105 161 C-102.36 161 -99.72 161 -97 161 C-97.33 157.37 -97.66 153.74 -98 150 C-95.36 150 -92.72 150 -90 150 C-90 144.72 -90 139.44 -90 134 C-87.36 134 -84.72 134 -82 134 C-82 119.15 -82 104.3 -82 89 C-84.64 89 -87.28 89 -90 89 C-90.33 87.02 -90.66 85.04 -91 83 C-93.64 83 -96.28 83 -99 83 C-99.33 82.34 -99.66 81.68 -100 81 C-102.34386809 80.08968728 -102.34386809 80.08968728 -105.0625 79.375 C-105.98160156 79.11460937 -106.90070313 78.85421875 -107.84765625 78.5859375 C-108.55792969 78.39257812 -109.26820313 78.19921875 -110 78 C-110 77.34 -110 76.68 -110 76 C-111.670625 75.62875 -111.670625 75.62875 -113.375 75.25 C-117 74 -117 74 -118.1875 71.9375 C-118.5896875 70.9784375 -118.5896875 70.9784375 -119 70 C-120.89179203 69.3185177 -120.89179203 69.3185177 -123 69 C-124.3479743 68.36345658 -125.68596724 67.70394612 -127 67 C-127 66.01 -127 65.02 -127 64 C-127.99 64 -128.98 64 -130 64 C-130 63.34 -130 62.68 -130 62 C-130.99 62 -131.98 62 -133 62 C-133 60.35 -133 58.7 -133 57 C-133.99 57 -134.98 57 -136 57 C-138.86210052 53.28986969 -139 51.90258766 -139 47 C-152.86 46.67 -166.72 46.34 -181 46 C-181.33 47.65 -181.66 49.3 -182 51 C-184.97 51 -187.94 51 -191 51 C-191 52.65 -191 54.3 -191 56 C-193.97 56 -196.94 56 -200 56 C-200 54.35 -200 52.7 -200 51 C-197.36 50.67 -194.72 50.34 -192 50 C-192 48.68 -192 47.36 -192 46 C-188.27569643 45.30710631 -184.78916254 44.88855404 -181 45 C-181 43.35 -181 41.7 -181 40 C-166.15 40 -151.3 40 -136 40 C-135.34 37.69 -134.68 35.38 -134 33 C-132 30.5625 -132 30.5625 -130 29 C-129.34 29 -128.68 29 -128 29 C-128 28.01 -128 27.02 -128 26 C-126.68 26 -125.36 26 -124 26 C-123.34 24.68 -122.68 23.36 -122 22 C-113.83952201 22.1985957 -107.35642804 24.57458419 -100 28 C-100 27.34 -100 26.68 -100 26 C-98.68 26 -97.36 26 -96 26 C-96 24.35 -96 22.7 -96 21 C-94.68 21 -93.36 21 -92 21 C-92 19.68 -92 18.36 -92 17 C-90.35 16.67 -88.7 16.34 -87 16 C-87 14.68 -87 13.36 -87 12 C-86.01 12 -85.02 12 -84 12 C-83.67 10.35 -83.34 8.7 -83 7 C-73.1 7 -63.2 7 -53 7 C-52.67 7.99 -52.34 8.98 -52 10 C-51.79375 9.360625 -51.5875 8.72125 -51.375 8.0625 C-50 6 -50 6 -46.875 5.25 C-45.92625 5.1675 -44.9775 5.085 -44 5 C-44 3.35 -44 1.7 -44 0 C-38.06 0 -32.12 0 -26 0 C-25.67 1.65 -25.34 3.3 -25 5 C-24.34 5 -23.68 5 -23 5 C-22.67 3.35 -22.34 1.7 -22 0 C-19.27119539 -0.19555932 -16.54228931 -0.38170447 -13.8125 -0.5625 C-13.04357422 -0.61857422 -12.27464844 -0.67464844 -11.48242188 -0.73242188 C-7.45938647 -0.99141557 -3.93927628 -1.06573607 0 0 Z " fill="#121213" transform="translate(402,128)"/>
<path d="M0 0 C0 2.31 0 4.62 0 7 C-1.32 7 -2.64 7 -4 7 C-3.505 9.475 -3.505 9.475 -3 12 C-5.31 12 -7.62 12 -10 12 C-10 13.98 -10 15.96 -10 18 C-11.65 18 -13.3 18 -15 18 C-15 20.31 -15 22.62 -15 25 C-13.35 25 -11.7 25 -10 25 C-10 28.96 -10 32.92 -10 37 C-11.65 37 -13.3 37 -15 37 C-15 38.65 -15 40.3 -15 42 C-18.3 42 -21.6 42 -25 42 C-25.33 43.98 -25.66 45.96 -26 48 C-31.94 48 -37.88 48 -44 48 C-44 46.02 -44 44.04 -44 42 C-45.98 42 -47.96 42 -50 42 C-50 40.35 -50 38.7 -50 37 C-51.32 37 -52.64 37 -54 37 C-54 33.37 -54 29.74 -54 26 C-55.65 26 -57.3 26 -59 26 C-59 24.68 -59 23.36 -59 22 C-62.96 22 -66.92 22 -71 22 C-71 23.65 -71 25.3 -71 27 C-73.64 27 -76.28 27 -79 27 C-79 28.32 -79 29.64 -79 31 C-80.32 31 -81.64 31 -83 31 C-83 32.32 -83 33.64 -83 35 C-84.32 35 -85.64 35 -87 35 C-87 36.65 -87 38.3 -87 40 C-88.32 40 -89.64 40 -91 40 C-91 41.65 -91 43.3 -91 45 C-93.97 45 -96.94 45 -100 45 C-100.02705729 43.22925083 -100.04642195 41.45838289 -100.0625 39.6875 C-100.07410156 38.70136719 -100.08570313 37.71523437 -100.09765625 36.69921875 C-100 34 -100 34 -99 31 C-97.68 31 -96.36 31 -95 31 C-95 29.68 -95 28.36 -95 27 C-93.68 27 -92.36 27 -91 27 C-91 25.35 -91 23.7 -91 22 C-88.36 22 -85.72 22 -83 22 C-83 19.03 -83 16.06 -83 13 C-73.31337984 11.95481555 -63.72654773 11.89628089 -54 12 C-54 13.65 -54 15.3 -54 17 C-52.35 17 -50.7 17 -49 17 C-49 13.7 -49 10.4 -49 7 C-47.02 7 -45.04 7 -43 7 C-43 5.02 -43 3.04 -43 1 C-37.72 1 -32.44 1 -27 1 C-27 2.98 -27 4.96 -27 7 C-25.35 7 -23.7 7 -22 7 C-22 4.69 -22 2.38 -22 0 C-19.27119539 -0.19555932 -16.54228931 -0.38170447 -13.8125 -0.5625 C-13.04357422 -0.61857422 -12.27464844 -0.67464844 -11.48242188 -0.73242188 C-7.45938647 -0.99141557 -3.93927628 -1.06573607 0 0 Z " fill="#EE722E" transform="translate(402,128)"/>
<path d="M0 0 C0.33 0 0.66 0 1 0 C1 18.48 1 36.96 1 56 C-1.475 56.495 -1.475 56.495 -4 57 C-4 62.28 -4 67.56 -4 73 C-5.98 73 -7.96 73 -10 73 C-10 75.64 -10 78.28 -10 81 C-11.98 81 -13.96 81 -16 81 C-16 84.63 -16 88.26 -16 92 C-18.31 92 -20.62 92 -23 92 C-23 93.65 -23 95.3 -23 97 C-23.33 97 -23.66 97 -24 97 C-24 95.02 -24 93.04 -24 91 C-26.64 91 -29.28 91 -32 91 C-32 93.64 -32 96.28 -32 99 C-34.31 99 -36.62 99 -39 99 C-38.979375 100.134375 -38.95875 101.26875 -38.9375 102.4375 C-39 106 -39 106 -40 107 C-41.85287502 107.07226502 -43.70833878 107.0838122 -45.5625 107.0625 C-46.57441406 107.05347656 -47.58632813 107.04445313 -48.62890625 107.03515625 C-49.41136719 107.02355469 -50.19382812 107.01195312 -51 107 C-51 108.98 -51 110.96 -51 113 C-55.62 113 -60.24 113 -65 113 C-65 114.98 -65 116.96 -65 119 C-83.81 119 -102.62 119 -122 119 C-122 117.02 -122 115.04 -122 113 C-125.63 113 -129.26 113 -133 113 C-133 112.01 -133 111.02 -133 110 C-135.64 110 -138.28 110 -141 110 C-141 109.01 -141 108.02 -141 107 C-143.64 107 -146.28 107 -149 107 C-149 104.69 -149 102.38 -149 100 C-150.98 100 -152.96 100 -155 100 C-155 97.36 -155 94.72 -155 92 C-151.04 92 -147.08 92 -143 92 C-141.5216774 94.95664519 -141.93967217 97.74229737 -142 101 C-139.03 101 -136.06 101 -133 101 C-133 102.98 -133 104.96 -133 107 C-129.04 107 -125.08 107 -121 107 C-120.67 107.99 -120.34 108.98 -120 110 C-116.04 110.33 -112.08 110.66 -108 111 C-108 111.66 -108 112.32 -108 113 C-99.75 113 -91.5 113 -83 113 C-83 111.02 -83 109.04 -83 107 C-77.06 107 -71.12 107 -65 107 C-65 104.36 -65 101.72 -65 99 C-59.06 99 -53.12 99 -47 99 C-47 96.36 -47 93.72 -47 91 C-44.69 91 -42.38 91 -40 91 C-39.67 88.36 -39.34 85.72 -39 83 C-36.36 83 -33.72 83 -31 83 C-31 80.03 -31 77.06 -31 74 C-28.69 74 -26.38 74 -24 74 C-24 71.03 -24 68.06 -24 65 C-20.535 64.505 -20.535 64.505 -17 64 C-17 59.05 -17 54.1 -17 49 C-14.69 49 -12.38 49 -10 49 C-10 33.16 -10 17.32 -10 1 C-8.35 1 -6.7 1 -5 1 C-5 18.82 -5 36.64 -5 55 C-3.35 55 -1.7 55 0 55 C0 36.85 0 18.7 0 0 Z " fill="#242424" transform="translate(344,233)"/>
<path d="M0 0 C1.98 0 3.96 0 6 0 C6 1.65 6 3.3 6 5 C4.35 5.33 2.7 5.66 1 6 C0.67 7.98 0.34 9.96 0 12 C-2.31 12 -4.62 12 -7 12 C-7 14.97 -7 17.94 -7 21 C-9.31 21 -11.62 21 -14 21 C-14 25.62 -14 30.24 -14 35 C-15.65 35 -17.3 35 -19 35 C-19 37.97 -19 40.94 -19 44 C-21.31 44 -23.62 44 -26 44 C-25.67 62.15 -25.34 80.3 -25 99 C-23.35 99.33 -21.7 99.66 -20 100 C-20 105.61 -20 111.22 -20 117 C-18.02 117 -16.04 117 -14 117 C-14 122.61 -14 128.22 -14 134 C-9.71 134.33 -5.42 134.66 -1 135 C-1 137.64 -1 140.28 -1 143 C1.31 143 3.62 143 6 143 C6 145.31 6 147.62 6 150 C8.64 150 11.28 150 14 150 C14 150.99 14 151.98 14 153 C16.64 153 19.28 153 22 153 C22 153.99 22 154.98 22 156 C25.63 156 29.26 156 33 156 C33 157.98 33 159.96 33 162 C51.81 162 70.62 162 90 162 C90 160.02 90 158.04 90 156 C94.62 156 99.24 156 104 156 C104 154.02 104 152.04 104 150 C107.63 149.67 111.26 149.34 115 149 C115.33 146.69 115.66 144.38 116 142 C118.31 142 120.62 142 123 142 C123 139.36 123 136.72 123 134 C125.64 134 128.28 134 131 134 C131 136.97 131 139.94 131 143 C128.69 143 126.38 143 124 143 C124.0309375 144.423125 124.0309375 144.423125 124.0625 145.875 C124 149 124 149 123 151 C120.69 151 118.38 151 116 151 C116 152.98 116 154.96 116 157 C112.04 157 108.08 157 104 157 C104 158.98 104 160.96 104 163 C99.38 163 94.76 163 90 163 C90 164.65 90 166.3 90 168 C87.46115401 169.26942299 85.68949709 169.12701165 82.84765625 169.12939453 C81.77314209 169.13254669 80.69862793 169.13569885 79.59155273 169.13894653 C78.42696533 169.1369223 77.26237793 169.13489807 76.0625 169.1328125 C74.27598022 169.13424759 74.27598022 169.13424759 72.45336914 169.13571167 C69.93147733 169.13639315 67.40958377 169.1345411 64.88769531 169.13037109 C61.01623616 169.12502243 57.14489302 169.13031721 53.2734375 169.13671875 C50.82812474 169.13605796 48.38281206 169.13477679 45.9375 169.1328125 C44.7729126 169.13483673 43.6083252 169.13686096 42.40844727 169.13894653 C41.33393311 169.13579437 40.25941895 169.13264221 39.15234375 169.12939453 C38.20351318 169.12859894 37.25468262 169.12780334 36.27709961 169.12698364 C34 169 34 169 32 168 C32 166.35 32 164.7 32 163 C28.37 163 24.74 163 21 163 C21 161.35 21 159.7 21 158 C18.69 157.67 16.38 157.34 14 157 C14 156.01 14 155.02 14 154 C11.36 154 8.72 154 6 154 C5.67 153.01 5.34 152.02 5 151 C3.02 150.67 1.04 150.34 -1 150 C-1 148.02 -1 146.04 -1 144 C-3.31 144 -5.62 144 -8 144 C-9.35439668 141.29120665 -9.06501451 138.99066732 -9 136 C-10.2065625 136.0309375 -10.2065625 136.0309375 -11.4375 136.0625 C-14 136 -14 136 -15 135 C-15.07179964 133.48071962 -15.08392007 131.95832518 -15.0625 130.4375 C-15.05347656 129.61121094 -15.04445312 128.78492188 -15.03515625 127.93359375 C-15.02355469 127.29550781 -15.01195312 126.65742188 -15 126 C-16.98 126 -18.96 126 -21 126 C-21 123.36 -21 120.72 -21 118 C-21.804375 118.020625 -22.60875 118.04125 -23.4375 118.0625 C-26 118 -26 118 -27 117 C-27.07319621 114.30345146 -27.09242537 111.63308542 -27.0625 108.9375 C-27.05798828 108.17888672 -27.05347656 107.42027344 -27.04882812 106.63867188 C-27.0370068 104.75908129 -27.01907078 102.87953101 -27 101 C-28.65 100.67 -30.3 100.34 -32 100 C-33.25084553 87.84110316 -32.91709369 75.8205985 -32.5625 63.625 C-32.50914258 61.61720396 -32.45640373 59.60939138 -32.40429688 57.6015625 C-32.27665265 52.7341552 -32.14067164 47.8670475 -32 43 C-30.35 43 -28.7 43 -27 43 C-27.020625 41.88625 -27.04125 40.7725 -27.0625 39.625 C-27 36 -27 36 -26 34 C-24.35 34 -22.7 34 -21 34 C-21.020625 32.80375 -21.04125 31.6075 -21.0625 30.375 C-21.06882571 26.81995131 -20.69888875 23.49444376 -20 20 C-18.35 20 -16.7 20 -15 20 C-15.020625 18.700625 -15.04125 17.40125 -15.0625 16.0625 C-15.08399454 14.70834367 -15.07148199 13.35243917 -15 12 C-14 11 -14 11 -10.9375 10.9375 C-9.4834375 10.9684375 -9.4834375 10.9684375 -8 11 C-8 9.02 -8 7.04 -8 5 C-5.36 5 -2.72 5 0 5 C0 3.35 0 1.7 0 0 Z " fill="#060F2C" transform="translate(189,190)"/>
<path d="M0 0 C7.02952752 0.4535179 12.5849443 2.12059087 19 5 C19 5.99 19 6.98 19 8 C16.69 8 14.38 8 12 8 C12 9.65 12 11.3 12 13 C12.66 13 13.32 13 14 13 C14 13.66 14 14.32 14 15 C16.97 15.495 16.97 15.495 20 16 C20 16.99 20 17.98 20 19 C20.66 19 21.32 19 22 19 C22 19.66 22 20.32 22 21 C26.65499974 21.81462495 31.30976546 22.43393721 36 23 C35.505 19.535 35.505 19.535 35 16 C36.65 16 38.3 16 40 16 C40 16.99 40 17.98 40 19 C40.99 19.33 41.98 19.66 43 20 C43 20.99 43 21.98 43 23 C44.32 23 45.64 23 47 23 C47 24.32 47 25.64 47 27 C48.32 27 49.64 27 51 27 C51.87184104 32.66696677 49.57430047 35.75356018 46.5078125 40.2421875 C46.01023437 40.82226562 45.51265625 41.40234375 45 42 C44.34 42 43.68 42 43 42 C43 43.65 43 45.3 43 47 C42.34 47 41.68 47 41 47 C41 48.32 41 49.64 41 51 C32.95885695 51.25527438 24.64120842 51.14158071 18 46 C18 45.34 18 44.68 18 44 C16.35 44 14.7 44 13 44 C13 43.34 13 42.68 13 42 C10.03 41.67 7.06 41.34 4 41 C3.67 39.68 3.34 38.36 3 37 C2.01 37 1.02 37 0 37 C0 36.01 0 35.02 0 34 C-1.32 34 -2.64 34 -4 34 C-4 33.34 -4 32.68 -4 32 C-4.66 32 -5.32 32 -6 32 C-6 31.34 -6 30.68 -6 30 C-6.99 29.67 -7.98 29.34 -9 29 C-9 27.68 -9 26.36 -9 25 C-9.99 25 -10.98 25 -12 25 C-11.11034483 16.10344828 -11.11034483 16.10344828 -9 13 C-8.34 12.67 -7.68 12.34 -7 12 C-6.67 11.01 -6.34 10.02 -6 9 C-5.34 9 -4.68 9 -4 9 C-4 7.35 -4 5.7 -4 4 C-3.01 4 -2.02 4 -1 4 C-0.67 2.68 -0.34 1.36 0 0 Z " fill="#252525" transform="translate(280,156)"/>
<path d="M0 0 C5.94 0 11.88 0 18 0 C18.495 2.475 18.495 2.475 19 5 C19.66 5 20.32 5 21 5 C21.33 3.68 21.66 2.36 22 1 C22 2.98 22 4.96 22 7 C20.35 7 18.7 7 17 7 C17 5.02 17 3.04 17 1 C11.72 1 6.44 1 1 1 C1 2.98 1 4.96 1 7 C-0.98 7 -2.96 7 -5 7 C-5 10.3 -5 13.6 -5 17 C-6.65 17 -8.3 17 -10 17 C-10 15.35 -10 13.7 -10 12 C-11.08796875 12.0721875 -12.1759375 12.144375 -13.296875 12.21875 C-21.87677003 12.76765194 -30.39755502 13.14917535 -39 13 C-39 15.97 -39 18.94 -39 22 C-41.64 22 -44.28 22 -47 22 C-47 23.65 -47 25.3 -47 27 C-48.32 27 -49.64 27 -51 27 C-51 28.32 -51 29.64 -51 31 C-52.32 31 -53.64 31 -55 31 C-55.33 35.62 -55.66 40.24 -56 45 C-53.03 45 -50.06 45 -47 45 C-47 43.35 -47 41.7 -47 40 C-45.68 40 -44.36 40 -43 40 C-43 38.35 -43 36.7 -43 35 C-41.68 35 -40.36 35 -39 35 C-39 33.68 -39 32.36 -39 31 C-37.68 31 -36.36 31 -35 31 C-35 29.68 -35 28.36 -35 27 C-32.36 27 -29.72 27 -27 27 C-27 25.35 -27 23.7 -27 22 C-23.04 22 -19.08 22 -15 22 C-15 23.32 -15 24.64 -15 26 C-13.35 26 -11.7 26 -10 26 C-10 29.3 -10 32.6 -10 36 C-10.99 34.02 -10.99 34.02 -12 32 C-13.485 31.505 -13.485 31.505 -15 31 C-15 29.68 -15 28.36 -15 27 C-18.3 27 -21.6 27 -25 27 C-25.495 29.475 -25.495 29.475 -26 32 C-28.31 32 -30.62 32 -33 32 C-33.33 33.65 -33.66 35.3 -34 37 C-35.32 37 -36.64 37 -38 37 C-38 37.99 -38 38.98 -38 40 C-36.68 40 -35.36 40 -34 40 C-33.9175 40.61875 -33.835 41.2375 -33.75 41.875 C-33.22739701 44.13953908 -33.22739701 44.13953908 -31.25 44.875 C-27.33783805 46.83108097 -25.1632916 50.41369327 -22.625 53.875 C-21.37806057 58.11459405 -22.36432175 62.50428646 -24.0625 66.5 C-24.371875 66.995 -24.68125 67.49 -25 68 C-26.13480527 64.39006828 -26.10015767 61.0157673 -26.0625 57.25 C-26.05347656 56.07953125 -26.04445313 54.9090625 -26.03515625 53.703125 C-26.02355469 52.81109375 -26.01195312 51.9190625 -26 51 C-27.32 51 -28.64 51 -30 51 C-30.33 52.32 -30.66 53.64 -31 55 C-31 53.68 -31 52.36 -31 51 C-32.32 51 -33.64 51 -35 51 C-35.33 50.01 -35.66 49.02 -36 48 C-36.99 47.505 -36.99 47.505 -38 47 C-38 46.01 -38 45.02 -38 44 C-39.65 44 -41.3 44 -43 44 C-42.505 47.465 -42.505 47.465 -42 51 C-47.21979128 51.1799928 -51.07262981 50.97094808 -56 49 C-56 48.34 -56 47.68 -56 47 C-56.66 47 -57.32 47 -58 47 C-58 46.01 -58 45.02 -58 44 C-59.98 43.67 -61.96 43.34 -64 43 C-64 42.34 -64 41.68 -64 41 C-64.66 41 -65.32 41 -66 41 C-66 39.35 -66 37.7 -66 36 C-63.69 36 -61.38 36 -59 36 C-59 35.01 -59 34.02 -59 33 C-60.56159059 32.51787786 -62.12431928 32.03944127 -63.6875 31.5625 C-64.55761719 31.29566406 -65.42773438 31.02882812 -66.32421875 30.75390625 C-68.87025921 30.03655471 -71.4003423 29.482459 -74 29 C-73.34 28.67 -72.68 28.34 -72 28 C-72 26.68 -72 25.36 -72 24 C-73.98 24 -75.96 24 -78 24 C-78.66 25.32 -79.32 26.64 -80 28 C-80.66 28 -81.32 28 -82 28 C-82 28.66 -82 29.32 -82 30 C-83.32 29.67 -84.64 29.34 -86 29 C-85.34 29 -84.68 29 -84 29 C-84 28.01 -84 27.02 -84 26 C-82.68 26 -81.36 26 -80 26 C-79.34 24.68 -78.68 23.36 -78 22 C-69.83952201 22.1985957 -63.35642804 24.57458419 -56 28 C-56 27.34 -56 26.68 -56 26 C-54.68 26 -53.36 26 -52 26 C-52 24.35 -52 22.7 -52 21 C-50.68 21 -49.36 21 -48 21 C-48 19.68 -48 18.36 -48 17 C-46.35 16.67 -44.7 16.34 -43 16 C-43 14.68 -43 13.36 -43 12 C-42.01 12 -41.02 12 -40 12 C-39.67 10.35 -39.34 8.7 -39 7 C-29.1 7 -19.2 7 -9 7 C-8.505 8.485 -8.505 8.485 -8 10 C-7.690625 9.0409375 -7.690625 9.0409375 -7.375 8.0625 C-6 6 -6 6 -2.875 5.25 C-1.92625 5.1675 -0.9775 5.085 0 5 C0 3.35 0 1.7 0 0 Z " fill="#09133A" transform="translate(358,128)"/>
<path d="M0 0 C0 1.32 0 2.64 0 4 C-1.98 4.33 -3.96 4.66 -6 5 C-6.33 5.99 -6.66 6.98 -7 8 C-7.99 8 -8.98 8 -10 8 C-10 9.65 -10 11.3 -10 13 C-10.66 13 -11.32 13 -12 13 C-12.185625 13.9590625 -12.185625 13.9590625 -12.375 14.9375 C-12.58125 15.618125 -12.7875 16.29875 -13 17 C-13.66 17.33 -14.32 17.66 -15 18 C-15.91280138 20.57437581 -15.91280138 20.57437581 -16.625 23.5625 C-16.88539063 24.57441406 -17.14578125 25.58632812 -17.4140625 26.62890625 C-17.60742188 27.41136719 -17.80078125 28.19382813 -18 29 C-17.01 29 -16.02 29 -15 29 C-14.814375 29.9590625 -14.814375 29.9590625 -14.625 30.9375 C-14.315625 31.9584375 -14.315625 31.9584375 -14 33 C-13.34 33.33 -12.68 33.66 -12 34 C-12 34.66 -12 35.32 -12 36 C-11.34 36 -10.68 36 -10 36 C-10 36.66 -10 37.32 -10 38 C-8.68 38 -7.36 38 -6 38 C-6 38.99 -6 39.98 -6 41 C-5.01 41 -4.02 41 -3 41 C-2.505 42.98 -2.505 42.98 -2 45 C0.97 45.33 3.94 45.66 7 46 C7 46.66 7 47.32 7 48 C7.763125 47.938125 8.52625 47.87625 9.3125 47.8125 C12.53047788 48.03701008 12.93507957 48.66574212 15 51 C18.73862297 53.44912274 22.9141853 53.65771255 27.25 54.125 C27.99507813 54.21136719 28.74015625 54.29773438 29.5078125 54.38671875 C31.33777846 54.59786867 33.16879879 54.79984545 35 55 C35 53.68 35 52.36 35 51 C35.66 51 36.32 51 37 51 C37 49.35 37 47.7 37 46 C37.66 46 38.32 46 39 46 C39.4021875 45.1646875 39.4021875 45.1646875 39.8125 44.3125 C41 42 41 42 42.5625 39.625 C44.1558667 36.71537386 44.61916299 34.27519826 45 31 C44.01 31 43.02 31 42 31 C42 29.68 42 28.36 42 27 C43.32 27 44.64 27 46 27 C46.223293 29.06093408 46.42802887 31.1238839 46.625 33.1875 C46.74101562 34.33605469 46.85703125 35.48460937 46.9765625 36.66796875 C47.00599062 40.85166603 46.23258919 43.61950011 43.4375 46.75 C41.21809807 50.2238465 41.25084684 53.95185104 41 58 C36.126739 59.5912689 32.19209404 60.21192221 27 60 C27 59.34 27 58.68 27 58 C25.7625 58.0825 24.525 58.165 23.25 58.25 C17.08802991 58.28931081 11.69855058 56.15985673 6 54 C6 53.34 6 52.68 6 52 C4.88625 51.7525 3.7725 51.505 2.625 51.25 C-1 50 -1 50 -2.1875 47.9375 C-2.5896875 46.9784375 -2.5896875 46.9784375 -3 46 C-4.89179203 45.3185177 -4.89179203 45.3185177 -7 45 C-8.3479743 44.36345658 -9.68596724 43.70394612 -11 43 C-11 42.01 -11 41.02 -11 40 C-11.99 40 -12.98 40 -14 40 C-14 39.34 -14 38.68 -14 38 C-14.99 38 -15.98 38 -17 38 C-17 36.35 -17 34.7 -17 33 C-17.99 33 -18.98 33 -20 33 C-22.86210052 29.28986969 -23 27.90258766 -23 23 C-36.86 22.67 -50.72 22.34 -65 22 C-65.33 23.65 -65.66 25.3 -66 27 C-68.97 27 -71.94 27 -75 27 C-75 28.65 -75 30.3 -75 32 C-77.97 32 -80.94 32 -84 32 C-84 30.35 -84 28.7 -84 27 C-80.04 26.505 -80.04 26.505 -76 26 C-76 24.68 -76 23.36 -76 22 C-72.27569643 21.30710631 -68.78916254 20.88855404 -65 21 C-65 19.35 -65 17.7 -65 16 C-50.15 16 -35.3 16 -20 16 C-19.34 13.69 -18.68 11.38 -18 9 C-17.34 8.01 -16.68 7.02 -16 6 C-12.875 5.8125 -12.875 5.8125 -10 6 C-10 5.34 -10 4.68 -10 4 C-6.95728913 0.0210704 -4.91525785 -0.44684162 0 0 Z " fill="#040507" transform="translate(286,152)"/>
<path d="M0 0 C0 1.65 0 3.3 0 5 C1.32 5 2.64 5 4 5 C5.29229291 9.91478329 5.11096715 14.77406063 5.0625 19.8125 C5.041875 22.844375 5.02125 25.87625 5 29 C15.89 29 26.78 29 38 29 C38 27.35 38 25.7 38 24 C39.65 24 41.3 24 43 24 C43 20.7 43 17.4 43 14 C41.35 14 39.7 14 38 14 C38 11.03 38 8.06 38 5 C39.65 5 41.3 5 43 5 C43 3.35 43 1.7 43 0 C43.33 0 43.66 0 44 0 C44 1.98 44 3.96 44 6 C42.35 6 40.7 6 39 6 C39 8.31 39 10.62 39 13 C40.65 13 42.3 13 44 13 C44 16.96 44 20.92 44 25 C42.35 25 40.7 25 39 25 C39 26.65 39 28.3 39 30 C35.7 30 32.4 30 29 30 C28.67 31.98 28.34 33.96 28 36 C22.06 36 16.12 36 10 36 C10 34.02 10 32.04 10 30 C8.02 30 6.04 30 4 30 C4 28.35 4 26.7 4 25 C2.68 25 1.36 25 0 25 C0 21.37 0 17.74 0 14 C-1.65 14 -3.3 14 -5 14 C-5 12.68 -5 11.36 -5 10 C-8.96 10 -12.92 10 -17 10 C-17 11.65 -17 13.3 -17 15 C-19.64 15 -22.28 15 -25 15 C-25 16.32 -25 17.64 -25 19 C-26.32 19 -27.64 19 -29 19 C-29 20.32 -29 21.64 -29 23 C-30.32 23 -31.64 23 -33 23 C-33 24.65 -33 26.3 -33 28 C-34.32 28 -35.64 28 -37 28 C-37 29.65 -37 31.3 -37 33 C-39.97 33 -42.94 33 -46 33 C-46.02705729 31.22925083 -46.04642195 29.45838289 -46.0625 27.6875 C-46.07410156 26.70136719 -46.08570313 25.71523437 -46.09765625 24.69921875 C-46 22 -46 22 -45 19 C-43.68 19 -42.36 19 -41 19 C-41 17.68 -41 16.36 -41 15 C-39.68 15 -38.36 15 -37 15 C-37 13.35 -37 11.7 -37 10 C-34.36 10 -31.72 10 -29 10 C-29 7.03 -29 4.06 -29 1 C-19.31337984 -0.04518445 -9.72654773 -0.10371911 0 0 Z " fill="#71482A" transform="translate(348,140)"/>
<path d="M0 0 C7.02952752 0.4535179 12.5849443 2.12059087 19 5 C19 5.99 19 6.98 19 8 C16.69 8 14.38 8 12 8 C12 9.65 12 11.3 12 13 C12.66 13 13.32 13 14 13 C14 13.66 14 14.32 14 15 C16.97 15.495 16.97 15.495 20 16 C20 16.99 20 17.98 20 19 C20.66 19 21.32 19 22 19 C22 19.66 22 20.32 22 21 C26.65499974 21.81462495 31.30976546 22.43393721 36 23 C35.505 19.535 35.505 19.535 35 16 C36.65 16 38.3 16 40 16 C40 16.99 40 17.98 40 19 C40.99 19.33 41.98 19.66 43 20 C43 20.99 43 21.98 43 23 C44.32 23 45.64 23 47 23 C47 24.32 47 25.64 47 27 C48.32 27 49.64 27 51 27 C51 28.98 51 30.96 51 33 C44.06697907 33.22731216 37.7831364 32.42002108 31 31 C31 30.34 31 29.68 31 29 C29.35 29 27.7 29 26 29 C26 28.34 26 27.68 26 27 C24.35 26.67 22.7 26.34 21 26 C21 25.34 21 24.68 21 24 C20.360625 23.773125 19.72125 23.54625 19.0625 23.3125 C14.86679739 21.51434174 10.96099444 19.26095979 7 17 C6.67 17.99 6.34 18.98 6 20 C5.34 20 4.68 20 4 20 C3.34 21.98 2.68 23.96 2 26 C1.34 26 0.68 26 0 26 C-0.33 28.31 -0.66 30.62 -1 33 C-2.65 32.67 -4.3 32.34 -6 32 C-6 31.34 -6 30.68 -6 30 C-6.99 29.67 -7.98 29.34 -9 29 C-9 27.68 -9 26.36 -9 25 C-9.99 25 -10.98 25 -12 25 C-11.11034483 16.10344828 -11.11034483 16.10344828 -9 13 C-8.34 12.67 -7.68 12.34 -7 12 C-6.67 11.01 -6.34 10.02 -6 9 C-5.34 9 -4.68 9 -4 9 C-4 7.35 -4 5.7 -4 4 C-3.01 4 -2.02 4 -1 4 C-0.67 2.68 -0.34 1.36 0 0 Z " fill="#606060" transform="translate(280,156)"/>
<path d="M0 0 C1.98 0 3.96 0 6 0 C6 1.65 6 3.3 6 5 C7.65 5 9.3 5 11 5 C11 8.3 11 11.6 11 15 C7.7 15 4.4 15 1 15 C1 16.32 1 17.64 1 19 C-0.32 19 -1.64 19 -3 19 C-3 20.32 -3 21.64 -3 23 C-4.65 23 -6.3 23 -8 23 C-8 24.65 -8 26.3 -8 28 C-9.98 28 -11.96 28 -14 28 C-14 29.98 -14 31.96 -14 34 C-18.62 34 -23.24 34 -28 34 C-28 32.02 -28 30.04 -28 28 C-29.32 28 -30.64 28 -32 28 C-32 25.03 -32 22.06 -32 19 C-30.35 19 -28.7 19 -27 19 C-27 17.68 -27 16.36 -27 15 C-24.69 15 -22.38 15 -20 15 C-20 13.35 -20 11.7 -20 10 C-17.03 10 -14.06 10 -11 10 C-11 8.35 -11 6.7 -11 5 C-7.37 5 -3.74 5 0 5 C0 3.35 0 1.7 0 0 Z " fill="#8C8C8C" transform="translate(222,183)"/>
<path d="M0 0 C6.69007182 0.52405563 13.3487487 1.10463925 20 2 C18.46395304 5.14191424 16.94268841 8.08596738 15 11 C14.34 11 13.68 11 13 11 C13 12.65 13 14.3 13 16 C12.34 16 11.68 16 11 16 C11 17.32 11 18.64 11 20 C3.86585832 20.22648069 -3.35663422 20.31042708 -9.5625 16.375 C-10.036875 15.92125 -10.51125 15.4675 -11 15 C-10.401875 14.443125 -9.80375 13.88625 -9.1875 13.3125 C-6.98520111 10.98435545 -5.58536222 8.77438388 -4 6 C-2.67541292 3.99419671 -1.3440093 1.99284138 0 0 Z " fill="#131313" transform="translate(310,187)"/>
<path d="M0 0 C3.96 0 7.92 0 12 0 C12 1.32 12 2.64 12 4 C13.65 4 15.3 4 17 4 C17 7.3 17 10.6 17 14 C16.34 12.68 15.68 11.36 15 10 C14.01 9.67 13.02 9.34 12 9 C12 7.68 12 6.36 12 5 C8.7 5 5.4 5 2 5 C1.67 6.65 1.34 8.3 1 10 C-1.31 10 -3.62 10 -6 10 C-6.33 11.65 -6.66 13.3 -7 15 C-8.32 15 -9.64 15 -11 15 C-11 15.99 -11 16.98 -11 18 C-9.68 18 -8.36 18 -7 18 C-6.87625 18.928125 -6.87625 18.928125 -6.75 19.875 C-6.22739701 22.13953908 -6.22739701 22.13953908 -4.25 22.875 C-0.33783805 24.83108097 1.8367084 28.41369327 4.375 31.875 C5.62193943 36.11459405 4.63567825 40.50428646 2.9375 44.5 C2.628125 44.995 2.31875 45.49 2 46 C0.86519473 42.39006828 0.89984233 39.0157673 0.9375 35.25 C0.94652344 34.07953125 0.95554687 32.9090625 0.96484375 31.703125 C0.97644531 30.81109375 0.98804688 29.9190625 1 29 C-0.32 29 -1.64 29 -3 29 C-3.33 30.32 -3.66 31.64 -4 33 C-4 31.68 -4 30.36 -4 29 C-5.32 29 -6.64 29 -8 29 C-8.33 28.01 -8.66 27.02 -9 26 C-9.66 25.67 -10.32 25.34 -11 25 C-11 24.01 -11 23.02 -11 22 C-13.97 22.33 -16.94 22.66 -20 23 C-20 21.35 -20 19.7 -20 18 C-18.68 18 -17.36 18 -16 18 C-16 16.35 -16 14.7 -16 13 C-14.68 13 -13.36 13 -12 13 C-12 11.68 -12 10.36 -12 9 C-10.68 9 -9.36 9 -8 9 C-8 7.68 -8 6.36 -8 5 C-5.36 5 -2.72 5 0 5 C0 3.35 0 1.7 0 0 Z " fill="#030613" transform="translate(331,150)"/>
<path d="M0 0 C0.33 0 0.66 0 1 0 C1.2475 1.2375 1.495 2.475 1.75 3.75 C2.67839533 7.55776636 4.00468856 9.40406342 7 12 C7 12.66 7 13.32 7 14 C7.99 14.33 8.98 14.66 10 15 C9.01 15.495 9.01 15.495 8 16 C7.67 16.99 7.34 17.98 7 19 C6.34 19 5.68 19 5 19 C4.34 20.98 3.68 22.96 3 25 C2.34 25 1.68 25 1 25 C0.67 27.31 0.34 29.62 0 32 C-1.65 31.67 -3.3 31.34 -5 31 C-5 30.34 -5 29.68 -5 29 C-5.99 28.67 -6.98 28.34 -8 28 C-8 26.68 -8 25.36 -8 24 C-8.99 24 -9.98 24 -11 24 C-10.11034483 15.10344828 -10.11034483 15.10344828 -8 12 C-7.34 11.67 -6.68 11.34 -6 11 C-5.67 10.01 -5.34 9.02 -5 8 C-4.34 8 -3.68 8 -3 8 C-3 6.35 -3 4.7 -3 3 C-2.01 3 -1.02 3 0 3 C0 2.01 0 1.02 0 0 Z " fill="#282828" transform="translate(279,157)"/>
<path d="M0 0 C0.33 0 0.66 0 1 0 C1 1.98 1 3.96 1 6 C-0.65 6 -2.3 6 -4 6 C-4 8.31 -4 10.62 -4 13 C-2.35 13 -0.7 13 1 13 C1 16.96 1 20.92 1 25 C-0.65 25 -2.3 25 -4 25 C-4 26.65 -4 28.3 -4 30 C-7.3 30 -10.6 30 -14 30 C-14.33 31.98 -14.66 33.96 -15 36 C-20.94 36 -26.88 36 -33 36 C-33 34.02 -33 32.04 -33 30 C-34.98 30 -36.96 30 -39 30 C-39 28.35 -39 26.7 -39 25 C-40.32 25 -41.64 25 -43 25 C-43 21.37 -43 17.74 -43 14 C-44.65 14 -46.3 14 -48 14 C-48 12.68 -48 11.36 -48 10 C-46.35 10 -44.7 10 -43 10 C-43 8.35 -43 6.7 -43 5 C-41.68 5 -40.36 5 -39 5 C-37.70770709 9.91478329 -37.88903285 14.77406063 -37.9375 19.8125 C-37.958125 22.844375 -37.97875 25.87625 -38 29 C-27.11 29 -16.22 29 -5 29 C-5 27.35 -5 25.7 -5 24 C-3.35 24 -1.7 24 0 24 C0 20.7 0 17.4 0 14 C-1.65 14 -3.3 14 -5 14 C-5 11.03 -5 8.06 -5 5 C-3.35 5 -1.7 5 0 5 C0 3.35 0 1.7 0 0 Z " fill="#7D2741" transform="translate(391,140)"/>
<path d="M0 0 C5.28 0 10.56 0 16 0 C16 1.65 16 3.3 16 5 C14.35 5 12.7 5 11 5 C11 9.62 11 14.24 11 19 C5.72 19 0.44 19 -5 19 C-5 14.38 -5 9.76 -5 5 C-3.35 5 -1.7 5 0 5 C0 3.35 0 1.7 0 0 Z " fill="#FBCD23" transform="translate(364,140)"/>
<path d="M0 0 C18.48 0 36.96 0 56 0 C56 1.65 56 3.3 56 5 C37.52 5 19.04 5 0 5 C0 3.35 0 1.7 0 0 Z " fill="#000105" transform="translate(222,352)"/>
<path d="M0 0 C1.65 0 3.3 0 5 0 C5 18.15 5 36.3 5 55 C3.35 55 1.7 55 0 55 C0 36.85 0 18.7 0 0 Z " fill="#000105" transform="translate(158,234)"/>
<path d="M0 0 C1.32 0 2.64 0 4 0 C4 18.15 4 36.3 4 55 C2.35 55 0.7 55 -1 55 C-1.02526605 47.32788798 -1.04283123 39.6557866 -1.05493164 31.98364258 C-1.05997377 29.37133381 -1.06680725 26.75902789 -1.07543945 24.14672852 C-1.08751036 20.40119732 -1.09322935 16.65570328 -1.09765625 12.91015625 C-1.10281754 11.73413345 -1.10797882 10.55811066 -1.11329651 9.34645081 C-1.11340981 7.72488319 -1.11340981 7.72488319 -1.11352539 6.07055664 C-1.115746 5.11347305 -1.11796661 4.15638947 -1.12025452 3.17030334 C-1 1 -1 1 0 0 Z " fill="#010002" transform="translate(340,233)"/>
<path d="M0 0 C1.32 0 2.64 0 4 0 C4 2.64 4 5.28 4 8 C6.64 8 9.28 8 12 8 C10.68 8.33 9.36 8.66 8 9 C8 10.32 8 11.64 8 13 C6.68 13 5.36 13 4 13 C4 14.65 4 16.3 4 18 C2.68 18 1.36 18 0 18 C0 19.65 0 21.3 0 23 C-2.97 23 -5.94 23 -9 23 C-9.02705729 21.22925083 -9.04642195 19.45838289 -9.0625 17.6875 C-9.07410156 16.70136719 -9.08570313 15.71523437 -9.09765625 14.69921875 C-9 12 -9 12 -8 9 C-6.68 9 -5.36 9 -4 9 C-4 7.68 -4 6.36 -4 5 C-2.68 5 -1.36 5 0 5 C0 3.35 0 1.7 0 0 Z " fill="#58402F" transform="translate(311,150)"/>
<path d="M0 0 C0.99 0.495 0.99 0.495 2 1 C1.34 2.98 0.68 4.96 0 7 C-0.66 7 -1.32 7 -2 7 C-2.33 8.32 -2.66 9.64 -3 11 C-17.85 11 -32.7 11 -48 11 C-48.33 13.64 -48.66 16.28 -49 19 C-50 20 -50 20 -52.06640625 20.09765625 C-52.89011719 20.08605469 -53.71382812 20.07445312 -54.5625 20.0625 C-55.38878906 20.05347656 -56.21507812 20.04445312 -57.06640625 20.03515625 C-58.02353516 20.01775391 -58.02353516 20.01775391 -59 20 C-59 21.65 -59 23.3 -59 25 C-61.97 25 -64.94 25 -68 25 C-68 23.35 -68 21.7 -68 20 C-64.04 19.505 -64.04 19.505 -60 19 C-60 17.68 -60 16.36 -60 15 C-56.27569643 14.30710631 -52.78916254 13.88855404 -49 14 C-49 12.35 -49 10.7 -49 9 C-34.15 9 -19.3 9 -4 9 C-3.34 6.69 -2.68 4.38 -2 2 C-1.34 1.34 -0.68 0.68 0 0 Z " fill="#071136" transform="translate(270,159)"/>
<path d="M0 0 C7.02952752 0.4535179 12.5849443 2.12059087 19 5 C19 5.99 19 6.98 19 8 C16.69 8 14.38 8 12 8 C12 9.65 12 11.3 12 13 C12.66 13 13.32 13 14 13 C14 13.66 14 14.32 14 15 C16.97 15.495 16.97 15.495 20 16 C20 17.32 20 18.64 20 20 C16.49071423 20.89772427 14.6529929 21.30371763 11.3125 19.75 C9.3380427 18.2558161 7.57552586 16.90721552 6 15 C6 14.34 6 13.68 6 13 C5.38125 12.7525 4.7625 12.505 4.125 12.25 C1.51001756 10.71177504 0.93291754 9.87649576 0 7 C-0.0777346 4.66796188 -0.08967728 2.33160941 0 0 Z " fill="#666666" transform="translate(280,156)"/>
<path d="M0 0 C6.75 0.875 6.75 0.875 9 2 C9 2.66 9 3.32 9 4 C7.68 4 6.36 4 5 4 C5 5.98 5 7.96 5 10 C6.65 10 8.3 10 10 10 C9.67 10.99 9.34 11.98 9 13 C8.34 13 7.68 13 7 13 C7 14.32 7 15.64 7 17 C6.34 17 5.68 17 5 17 C5 15.68 5 14.36 5 13 C4.01 13 3.02 13 2 13 C-0.04442328 16.54366701 -0.26700438 18.60202629 -1 23 C-5.29 23 -9.58 23 -14 23 C-14.33 21.02 -14.66 19.04 -15 17 C-14.67 16.67 -14.34 16.34 -14 16 C-14.99 15.67 -15.98 15.34 -17 15 C-17 13.02 -17 11.04 -17 9 C-16.67 9 -16.34 9 -16 9 C-16 10.65 -16 12.3 -16 14 C-10.72 14 -5.44 14 0 14 C0 9.38 0 4.76 0 0 Z " fill="#F17E1F" transform="translate(375,145)"/>
<path d="M0 0 C5.61 0 11.22 0 17 0 C17 2.97 17 5.94 17 9 C14.03 9 11.06 9 8 9 C8 10.65 8 12.3 8 14 C5.36 14 2.72 14 0 14 C-0.33 13.01 -0.66 12.02 -1 11 C-0.34 11 0.32 11 1 11 C1 9.35 1 7.7 1 6 C-0.98 6 -2.96 6 -5 6 C-5 7.65 -5 9.3 -5 11 C-7.64 11 -10.28 11 -13 11 C-13 10.67 -13 10.34 -13 10 C-10.69 10 -8.38 10 -6 10 C-6.020625 9.195625 -6.04125 8.39125 -6.0625 7.5625 C-6 5 -6 5 -5 4 C-3.33382885 3.95936168 -1.66611905 3.957279 0 4 C0 2.68 0 1.36 0 0 Z " fill="#1E222A" transform="translate(194,184)"/>
<path d="M0 0 C4.80205946 -0.45019307 8.68818988 1.05565572 13 3 C14 4 14 4 14.09765625 7.16015625 C14.08605469 8.44792969 14.07445312 9.73570312 14.0625 11.0625 C14.05347656 12.35285156 14.04445313 13.64320313 14.03515625 14.97265625 C14.02355469 15.97167969 14.01195312 16.97070312 14 18 C20.435 17.505 20.435 17.505 27 17 C27.33 19.31 27.66 21.62 28 24 C22.78020872 24.1799928 18.92737019 23.97094808 14 22 C14 21.34 14 20.68 14 20 C13.34 20 12.68 20 12 20 C12 19.01 12 18.02 12 17 C10.02 16.67 8.04 16.34 6 16 C6 15.34 6 14.68 6 14 C5.34 14 4.68 14 4 14 C4 12.35 4 10.7 4 9 C6.31 9 8.62 9 11 9 C11 8.01 11 7.02 11 6 C9.865625 5.731875 8.73125 5.46375 7.5625 5.1875 C6.386875 4.795625 5.21125 4.40375 4 4 C3.67 3.01 3.34 2.02 3 1 C2.01 0.67 1.02 0.34 0 0 Z " fill="#0A0B0D" transform="translate(288,155)"/>
<path d="M0 0 C3.63 0 7.26 0 11 0 C11 3.3 11 6.6 11 10 C9.35 10 7.7 10 6 10 C6 11.65 6 13.3 6 15 C2.37 15 -1.26 15 -5 15 C-6.19876651 9.55106131 -5.91360308 6.77830905 -3 2 C-2.67 2.66 -2.34 3.32 -2 4 C-1.34 4 -0.68 4 0 4 C0 5.32 0 6.64 0 8 C0.66 8 1.32 8 2 8 C2 6.68 2 5.36 2 4 C3.5 2.25 3.5 2.25 5 1 C3.35 1 1.7 1 0 1 C0 0.67 0 0.34 0 0 Z " fill="#F3742A" transform="translate(380,154)"/>
<path d="M0 0 C0.33 1.32 0.66 2.64 1 4 C2.65 4 4.3 4 6 4 C6 5.65 6 7.3 6 9 C4.35 9 2.7 9 1 9 C1 11.97 1 14.94 1 18 C-0.98 18 -2.96 18 -5 18 C-5 16.35 -5 14.7 -5 13 C-3.68 13 -2.36 13 -1 13 C-1.66 12.67 -2.32 12.34 -3 12 C-3 11.34 -3 10.68 -3 10 C-3.99 9.67 -4.98 9.34 -6 9 C-5.67 7.35 -5.34 5.7 -5 4 C-10.28 4 -15.56 4 -21 4 C-21 3.34 -21 2.68 -21 2 C-15.65998179 0.66499545 -12.16044765 1.487455 -7 3 C-7 2.34 -7 1.68 -7 1 C-3.535 0.505 -3.535 0.505 0 0 Z " fill="#EA7F1B" transform="translate(385,136)"/>
<path d="M0 0 C2 0 2 0 3.625 1.375 C5 3 5 3 5 5 C5.66 5 6.32 5 7 5 C7 5.99 7 6.98 7 8 C6.34 8 5.68 8 5 8 C4.34 9.98 3.68 11.96 3 14 C2.34 14 1.68 14 1 14 C0.67 16.31 0.34 18.62 0 21 C-1.65 20.67 -3.3 20.34 -5 20 C-5 19.34 -5 18.68 -5 18 C-5.99 17.67 -6.98 17.34 -8 17 C-8 16.34 -8 15.68 -8 15 C-7.34 15 -6.68 15 -6 15 C-5.72736328 14.00419922 -5.72736328 14.00419922 -5.44921875 12.98828125 C-2.78647148 3.63452802 -2.78647148 3.63452802 0 0 Z " fill="#6B6B6B" transform="translate(279,168)"/>
<path d="M0 0 C1.65 0 3.3 0 5 0 C5 1.98 5 3.96 5 6 C6.98 6 8.96 6 11 6 C11 7.98 11 9.96 11 12 C11.99 12 12.98 12 14 12 C14.33 8.37 14.66 4.74 15 1 C15.33 1 15.66 1 16 1 C16 5.29 16 9.58 16 14 C10.72 14 5.44 14 0 14 C0 9.38 0 4.76 0 0 Z " fill="#FDC12D" transform="translate(359,145)"/>
<path d="M0 0 C0.33 0 0.66 0 1 0 C1 18.48 1 36.96 1 56 C-1.475 56.495 -1.475 56.495 -4 57 C-4 62.28 -4 67.56 -4 73 C-5.98 73 -7.96 73 -10 73 C-10 75.64 -10 78.28 -10 81 C-11.98 81 -13.96 81 -16 81 C-16 84.63 -16 88.26 -16 92 C-18.31 92 -20.62 92 -23 92 C-23 93.65 -23 95.3 -23 97 C-23.33 97 -23.66 97 -24 97 C-24 95.02 -24 93.04 -24 91 C-21.69 91 -19.38 91 -17 91 C-17 87.37 -17 83.74 -17 80 C-15.02 80 -13.04 80 -11 80 C-11 77.36 -11 74.72 -11 72 C-9.35 72 -7.7 72 -6 72 C-6 66.39 -6 60.78 -6 55 C-4.02 55 -2.04 55 0 55 C0 36.85 0 18.7 0 0 Z " fill="#0A1E4E" transform="translate(344,233)"/>
<path d="M0 0 C2.07894069 3.11841104 2.24950079 3.79482648 2.24291992 7.33203125 C2.24599655 8.20303467 2.24907318 9.07403809 2.25224304 9.97143555 C2.24505753 10.90898682 2.23787201 11.84653809 2.23046875 12.8125 C2.22978142 14.26039917 2.22978142 14.26039917 2.2290802 15.73754883 C2.22605903 17.77849558 2.21817679 19.81944004 2.20581055 21.86035156 C2.18757166 24.98771314 2.18530078 28.11477832 2.18554688 31.2421875 C2.18063089 33.2239609 2.17480222 35.20573229 2.16796875 37.1875 C2.16685593 38.12505127 2.1657431 39.06260254 2.16459656 40.02856445 C2.15821671 40.89956787 2.15183685 41.77057129 2.14526367 42.66796875 C2.14145187 43.43391357 2.13764008 44.1998584 2.13371277 44.98901367 C2 47 2 47 1 50 C-2.3 50 -5.6 50 -9 50 C-8 48 -8 48 -5.5 47.125 C-2.87108994 46.27947944 -2.87108994 46.27947944 -2.1875 44.125 C-2.00796607 42.09028218 -2 40.04262308 -2 38 C-1.34 38 -0.68 38 0 38 C0 25.46 0 12.92 0 0 Z " fill="#1B2A54" transform="translate(278,8)"/>
<path d="M0 0 C5.61 0 11.22 0 17 0 C17 3.3 17 6.6 17 10 C15.35 10 13.7 10 12 10 C12 7.36 12 4.72 12 2 C10.64381501 3.12534105 10.64381501 3.12534105 10.9375 6.0625 C10.958125 7.031875 10.97875 8.00125 11 9 C10.34 8.34 9.68 7.68 9 7 C6.79749008 6.53993654 6.79749008 6.53993654 4.375 6.375 C3.55773437 6.30023438 2.74046875 6.22546875 1.8984375 6.1484375 C1.27195312 6.09945312 0.64546875 6.05046875 0 6 C0 4.02 0 2.04 0 0 Z " fill="#794B20" transform="translate(331,140)"/>
<path d="M0 0 C9.24 0 18.48 0 28 0 C28 1.32 28 2.64 28 4 C18.6587308 4.61326035 9.36749815 5.1820896 0 5 C0 3.35 0 1.7 0 0 Z " fill="#040410" transform="translate(320,136)"/>
<path d="M0 0 C3.96 0 7.92 0 12 0 C12 1.32 12 2.64 12 4 C13.65 4 15.3 4 17 4 C17 7.3 17 10.6 17 14 C16.34 12.68 15.68 11.36 15 10 C14.01 9.67 13.02 9.34 12 9 C12 7.68 12 6.36 12 5 C8.7 5 5.4 5 2 5 C1.67 6.32 1.34 7.64 1 9 C-1.97 8.67 -4.94 8.34 -8 8 C-8 7.01 -8 6.02 -8 5 C-5.36 5 -2.72 5 0 5 C0 3.35 0 1.7 0 0 Z " fill="#0B0608" transform="translate(331,150)"/>
<path d="M0 0 C1.65 0 3.3 0 5 0 C5 1.98 5 3.96 5 6 C6.32 6.33 7.64 6.66 9 7 C8.67 7.99 8.34 8.98 8 10 C8 11.32 8 12.64 8 14 C12.29 14 16.58 14 21 14 C21.33 12.68 21.66 11.36 22 10 C22 11.65 22 13.3 22 15 C14.74 15 7.48 15 0 15 C0 10.05 0 5.1 0 0 Z " fill="#F57330" transform="translate(353,154)"/>
<path d="M0 0 C1.98 0 3.96 0 6 0 C6 6.27 6 12.54 6 19 C4.02 19 2.04 19 0 19 C-0.95494281 12.42150508 -0.8931507 6.58183362 0 0 Z " fill="#D23B25" transform="translate(353,135)"/>
<path d="M0 0 C2.31 0 4.62 0 7 0 C5.46395304 3.14191424 3.94268841 6.08596738 2 9 C1.34 9 0.68 9 0 9 C0 10.65 0 12.3 0 14 C-0.66 14 -1.32 14 -2 14 C-2 14.99 -2 15.98 -2 17 C-4.64 17 -7.28 17 -10 17 C-8.87548273 14.0280615 -7.77706209 11.66559313 -6 9 C-5.34 9 -4.68 9 -4 9 C-3.71125 8.2575 -3.4225 7.515 -3.125 6.75 C-2.17697356 4.43260203 -1.15154089 2.22082885 0 0 Z " fill="#222223" transform="translate(323,189)"/>
<path d="M0 0 C0 2.31 0 4.62 0 7 C-1.32 7 -2.64 7 -4 7 C-4 5.02 -4 3.04 -4 1 C-5.98 1.33 -7.96 1.66 -10 2 C-10.33 3.32 -10.66 4.64 -11 6 C-14.63 6.33 -18.26 6.66 -22 7 C-22 4.69 -22 2.38 -22 0 C-19.27119539 -0.19555932 -16.54228931 -0.38170447 -13.8125 -0.5625 C-13.04357422 -0.61857422 -12.27464844 -0.67464844 -11.48242188 -0.73242188 C-7.45938647 -0.99141557 -3.93927628 -1.06573607 0 0 Z " fill="#A63136" transform="translate(402,128)"/>
<path d="M0 0 C0.33 0.99 0.66 1.98 1 3 C2.32 3 3.64 3 5 3 C5.0825 3.61875 5.165 4.2375 5.25 4.875 C5.77260299 7.13953908 5.77260299 7.13953908 7.75 7.875 C11.66216195 9.83108097 13.8367084 13.41369327 16.375 16.875 C17.62193943 21.11459405 16.63567825 25.50428646 14.9375 29.5 C14.628125 29.995 14.31875 30.49 14 31 C12.86519473 27.39006828 12.89984233 24.0157673 12.9375 20.25 C12.94652344 19.07953125 12.95554687 17.9090625 12.96484375 16.703125 C12.97644531 15.81109375 12.98804688 14.9190625 13 14 C11.68 14 10.36 14 9 14 C8.67 15.32 8.34 16.64 8 18 C8 16.68 8 15.36 8 14 C6.68 14 5.36 14 4 14 C3.67 13.01 3.34 12.02 3 11 C2.34 10.34 1.68 9.68 1 9 C1.99 9 2.98 9 4 9 C4 7.35 4 5.7 4 4 C2.68 4 1.36 4 0 4 C0 2.68 0 1.36 0 0 Z " fill="#10151F" transform="translate(319,165)"/>
<path d="M0 0 C0.78503906 0.00515625 1.57007813 0.0103125 2.37890625 0.015625 C3.55259766 0.00789062 3.55259766 0.00789062 4.75 0 C6.94140625 0.265625 6.94140625 0.265625 9.94140625 2.265625 C9.94140625 4.245625 9.94140625 6.225625 9.94140625 8.265625 C5.65140625 8.265625 1.36140625 8.265625 -3.05859375 8.265625 C-3.38859375 6.285625 -3.71859375 4.305625 -4.05859375 2.265625 C-2.05859375 0.265625 -2.05859375 0.265625 0 0 Z " fill="#F37C1F" transform="translate(364.05859375,159.734375)"/>
<path d="M0 0 C1.32 0 2.64 0 4 0 C4 2.64 4 5.28 4 8 C6.64 8 9.28 8 12 8 C10.68 8.33 9.36 8.66 8 9 C8 10.32 8 11.64 8 13 C5.36 13.33 2.72 13.66 0 14 C0 12.35 0 10.7 0 9 C-1.32 9 -2.64 9 -4 9 C-4 7.68 -4 6.36 -4 5 C-2.68 5 -1.36 5 0 5 C0 3.35 0 1.7 0 0 Z " fill="#523B2A" transform="translate(311,150)"/>
<path d="M0 0 C5.28 0 10.56 0 16 0 C16 1.98 16 3.96 16 6 C10.72 6 5.44 6 0 6 C0 4.02 0 2.04 0 0 Z " fill="#D83426" transform="translate(359,129)"/>
<path d="M0 0 C8.16047799 0.1985957 14.64357196 2.57458419 22 6 C21.34 6.66 20.68 7.32 20 8 C17.8359375 7.7578125 17.8359375 7.7578125 15.375 7.125 C14.55773437 6.92132813 13.74046875 6.71765625 12.8984375 6.5078125 C11.95871094 6.25644531 11.95871094 6.25644531 11 6 C11 6.66 11 7.32 11 8 C8.69 7.67 6.38 7.34 4 7 C4.66 6.67 5.32 6.34 6 6 C6 4.68 6 3.36 6 2 C4.02 2 2.04 2 0 2 C-0.66 3.32 -1.32 4.64 -2 6 C-2.66 6 -3.32 6 -4 6 C-4 6.66 -4 7.32 -4 8 C-5.32 7.67 -6.64 7.34 -8 7 C-7.34 7 -6.68 7 -6 7 C-6 6.01 -6 5.02 -6 4 C-4.68 4 -3.36 4 -2 4 C-1.34 2.68 -0.68 1.36 0 0 Z " fill="#080F29" transform="translate(280,150)"/>
<path d="M0 0 C1.65 0 3.3 0 5 0 C5 5.28 5 10.56 5 16 C3.35 16 1.7 16 0 16 C0 10.72 0 5.44 0 0 Z " fill="#030407" transform="translate(333,289)"/>
<path d="M0 0 C1.65 0 3.3 0 5 0 C5 5.28 5 10.56 5 16 C3.35 16 1.7 16 0 16 C0 10.72 0 5.44 0 0 Z " fill="#020205" transform="translate(164,290)"/>
<path d="M0 0 C2.64 0 5.28 0 8 0 C8 2.64 8 5.28 8 8 C5.29120665 9.35439668 2.99066732 9.06501451 0 9 C0 6.03 0 3.06 0 0 Z " fill="#222321" transform="translate(181,316)"/>
<path d="M0 0 C2.31 0 4.62 0 7 0 C7 3.3 7 6.6 7 10 C4.69 10 2.38 10 0 10 C0 6.7 0 3.4 0 0 Z " fill="#020403" transform="translate(320,314)"/>
<path d="M0 0 C0.45375 0.495 0.9075 0.99 1.375 1.5 C2.87635519 3.22609337 2.87635519 3.22609337 5 3 C4.53199289 7.05606165 4.12046792 10.46588679 2 14 C1.34 14 0.68 14 0 14 C0 13.34 0 12.68 0 12 C-0.99 12 -1.98 12 -3 12 C-2.14285714 3.42857143 -2.14285714 3.42857143 0 0 Z " fill="#252525" transform="translate(271,169)"/>
<path d="M0 0 C1.65 0 3.3 0 5 0 C5 4.29 5 8.58 5 13 C3.35 13 1.7 13 0 13 C0 10.69 0 8.38 0 6 C-0.66 5.67 -1.32 5.34 -2 5 C-1.34 5 -0.68 5 0 5 C0 3.35 0 1.7 0 0 Z " fill="#030308" transform="translate(170,211)"/>
<path d="M0 0 C0.66 0 1.32 0 2 0 C2.33 1.32 2.66 2.64 3 4 C5.97 4.495 5.97 4.495 9 5 C9 7.31 9 9.62 9 12 C6.03 11.67 3.06 11.34 0 11 C0 7.37 0 3.74 0 0 Z " fill="#F7D116" transform="translate(361,146)"/>
<path d="M0 0 C3.63 0 7.26 0 11 0 C11 1.98 11 3.96 11 6 C7.37 6 3.74 6 0 6 C0 4.02 0 2.04 0 0 Z " fill="#030408" transform="translate(293,340)"/>
<path d="M0 0 C2.64 0 5.28 0 8 0 C8 1.65 8 3.3 8 5 C5.69 5 3.38 5 1 5 C1 6.65 1 8.3 1 10 C-0.65 10 -2.3 10 -4 10 C-4 8.35 -4 6.7 -4 5 C-2.68 5 -1.36 5 0 5 C0 3.35 0 1.7 0 0 Z " fill="#E29742" transform="translate(319,145)"/>
<path d="M0 0 C1.32 0 2.64 0 4 0 C4 18.15 4 36.3 4 55 C3.67 55 3.34 55 3 55 C2.67 37.84 2.34 20.68 2 3 C1.34 2.67 0.68 2.34 0 2 C0 1.34 0 0.68 0 0 Z " fill="#000519" transform="translate(340,233)"/>
<path d="M0 0 C1.65 0 3.3 0 5 0 C5 4.29 5 8.58 5 13 C3.35 12.67 1.7 12.34 0 12 C0 8.04 0 4.08 0 0 Z " fill="#02050A" transform="translate(328,211)"/>
<path d="M0 0 C1.32 0 2.64 0 4 0 C4 1.65 4 3.3 4 5 C1.69 5 -0.62 5 -3 5 C-3 6.98 -3 8.96 -3 11 C-1.35 11.33 0.3 11.66 2 12 C2.33 12.99 2.66 13.98 3 15 C2.34 15 1.68 15 1 15 C1 14.34 1 13.68 1 13 C-3.455 13.495 -3.455 13.495 -8 14 C-8 12.35 -8 10.7 -8 9 C-6.68 9 -5.36 9 -4 9 C-4 7.35 -4 5.7 -4 4 C-2.68 4 -1.36 4 0 4 C0 2.68 0 1.36 0 0 Z " fill="#100D0B" transform="translate(319,159)"/>
<path d="M0 0 C1.32 0 2.64 0 4 0 C4.33 2.97 4.66 5.94 5 9 C1.7 9 -1.6 9 -5 9 C-5 7.68 -5 6.36 -5 5 C-3.35 5 -1.7 5 0 5 C0 3.35 0 1.7 0 0 Z " fill="#643A23" transform="translate(348,145)"/>
<path d="M0 0 C1.98 0 3.96 0 6 0 C6 3.3 6 6.6 6 10 C4.02 10 2.04 10 0 10 C0 6.7 0 3.4 0 0 Z " fill="#FBEA7A" transform="translate(364,140)"/>
<path d="M0 0 C0.33 2.31 0.66 4.62 1 7 C-4.21979128 7.1799928 -8.07262981 6.97094808 -13 5 C-12.67 4.34 -12.34 3.68 -12 3 C-11.01 3 -10.02 3 -9 3 C-9 2.34 -9 1.68 -9 1 C-1.125 0 -1.125 0 0 0 Z " fill="#221F1D" transform="translate(315,172)"/>
<path d="M0 0 C2.31 0 4.62 0 7 0 C7 2.64 7 5.28 7 8 C4.69 8 2.38 8 0 8 C-1.09658936 4.71023192 -0.79953138 3.28696233 0 0 Z " fill="#02030B" transform="translate(181,325)"/>
<path d="M0 0 C3.63 0 7.26 0 11 0 C11 1.65 11 3.3 11 5 C7.37 5 3.74 5 0 5 C0 3.35 0 1.7 0 0 Z " fill="#020209" transform="translate(211,347)"/>
<path d="M0 0 C3.63 0 7.26 0 11 0 C11 1.65 11 3.3 11 5 C7.37 5 3.74 5 0 5 C0 3.35 0 1.7 0 0 Z " fill="#C43135" transform="translate(375,164)"/>
<path d="M0 0 C3.96 0 7.92 0 12 0 C11.67 2.31 11.34 4.62 11 7 C10.34 6.34 9.68 5.68 9 5 C6.79749008 4.53993654 6.79749008 4.53993654 4.375 4.375 C3.55773437 4.30023438 2.74046875 4.22546875 1.8984375 4.1484375 C1.27195312 4.09945312 0.64546875 4.05046875 0 4 C0 2.68 0 1.36 0 0 Z " fill="#65402A" transform="translate(319,141)"/>
<path d="M0 0 C2.31 0 4.62 0 7 0 C7.33 2.31 7.66 4.62 8 7 C5 8 5 8 2 7 C2 6.34 2 5.68 2 5 C1.34 5 0.68 5 0 5 C0 3.35 0 1.7 0 0 Z " fill="#302F33" transform="translate(292,164)"/>
<path d="M0 0 C5.94 0 11.88 0 18 0 C18.33 1.65 18.66 3.3 19 5 C19.66 5 20.32 5 21 5 C21.33 3.68 21.66 2.36 22 1 C22 2.98 22 4.96 22 7 C20.35 7 18.7 7 17 7 C17 5.02 17 3.04 17 1 C11.72 1 6.44 1 1 1 C1 2.98 1 4.96 1 7 C-0.65 7 -2.3 7 -4 7 C-2.68 6.34 -1.36 5.68 0 5 C0 3.35 0 1.7 0 0 Z " fill="#491233" transform="translate(358,128)"/>
<path d="M0 0 C0.99 0 1.98 0 3 0 C3 2.97 3 5.94 3 9 C0.69 9 -1.62 9 -4 9 C-4.33 7.68 -4.66 6.36 -5 5 C-4.01 5 -3.02 5 -2 5 C-1.34 3.35 -0.68 1.7 0 0 Z " fill="#08060D" transform="translate(316,141)"/>
<path d="M0 0 C1.65 0 3.3 0 5 0 C5 3.3 5 6.6 5 10 C3.35 10 1.7 10 0 10 C0 6.7 0 3.4 0 0 Z " fill="#8D8D8D" transform="translate(180,217)"/>
<path d="M0 0 C3.3 0 6.6 0 10 0 C10 1.65 10 3.3 10 5 C6.7 5 3.4 5 0 5 C0 3.35 0 1.7 0 0 Z " fill="#8A8A8A" transform="translate(238,183)"/>
<path d="M0 0 C1.65 0 3.3 0 5 0 C5 3.3 5 6.6 5 10 C3.35 10 1.7 10 0 10 C0 6.7 0 3.4 0 0 Z " fill="#BF302F" transform="translate(348,154)"/>
<path d="M0 0 C1.65 0 3.3 0 5 0 C5 3.3 5 6.6 5 10 C3.35 10 1.7 10 0 10 C0 6.7 0 3.4 0 0 Z " fill="#A93246" transform="translate(386,154)"/>
<path d="M0 0 C1.32 0.33 2.64 0.66 4 1 C3.01 1 2.02 1 1 1 C1 5.95 1 10.9 1 16 C-0.98 16.99 -0.98 16.99 -3 18 C-3.33 17.34 -3.66 16.68 -4 16 C-7.04581269 15.53045739 -7.04581269 15.53045739 -10.5625 15.375 C-11.76003906 15.30023438 -12.95757812 15.22546875 -14.19140625 15.1484375 C-15.11824219 15.09945312 -16.04507812 15.05046875 -17 15 C-17 13.02 -17 11.04 -17 9 C-16.67 9 -16.34 9 -16 9 C-16 10.65 -16 12.3 -16 14 C-10.72 14 -5.44 14 0 14 C0 9.38 0 4.76 0 0 Z " fill="#E5870F" transform="translate(375,145)"/>
<path d="M0 0 C1.98 0 3.96 0 6 0 C6 2.64 6 5.28 6 8 C4.02 8 2.04 8 0 8 C0 5.36 0 2.72 0 0 Z " fill="#02030A" transform="translate(175,316)"/>
<path d="M0 0 C1.98 0 3.96 0 6 0 C6 2.64 6 5.28 6 8 C4.02 8 2.04 8 0 8 C0 5.36 0 2.72 0 0 Z " fill="#050507" transform="translate(169,307)"/>
<path d="M0 0 C0.33 0.66 0.66 1.32 1 2 C1.99 2 2.98 2 4 2 C4 4.97 4 7.94 4 11 C2.02 11 0.04 11 -2 11 C-1.85892253 9.54119891 -1.71197585 8.08296449 -1.5625 6.625 C-1.48128906 5.81289062 -1.40007812 5.00078125 -1.31640625 4.1640625 C-1 2 -1 2 0 0 Z " fill="#010208" transform="translate(335,222)"/>
<path d="M0 0 C3.63 0 7.26 0 11 0 C11 0.66 11 1.32 11 2 C8.36 2 5.72 2 3 2 C3 4.31 3 6.62 3 9 C1.68 9 0.36 9 -1 9 C-1.125 2.25 -1.125 2.25 0 0 Z " fill="#F17F20" transform="translate(361,136)"/>
<path d="M0 0 C0 1.65 0 3.3 0 5 C-2.97 5 -5.94 5 -9 5 C-9 3.35 -9 1.7 -9 0 C-5.52176885 -1.15941038 -3.54104422 -0.70820884 0 0 Z " fill="#01061A" transform="translate(211,179)"/>
<path d="M0 0 C1.65 0 3.3 0 5 0 C5 2.97 5 5.94 5 9 C3.35 9 1.7 9 0 9 C0 6.03 0 3.06 0 0 Z " fill="#020407" transform="translate(164,225)"/>
<path d="M0 0 C3 1 3 1 4.75 3.5625 C6.57807389 8.58970319 6.05735644 12.51210249 3.9375 17.5 C3.628125 17.995 3.31875 18.49 3 19 C1.86519473 15.39006828 1.89984233 12.0157673 1.9375 8.25 C1.94652344 7.07953125 1.95554687 5.9090625 1.96484375 4.703125 C1.97644531 3.81109375 1.98804688 2.9190625 2 2 C1.34 2 0.68 2 0 2 C0 1.34 0 0.68 0 0 Z " fill="#041539" transform="translate(330,177)"/>
<path d="M0 0 C0.99 1.32 1.98 2.64 3 4 C2.67 4.66 2.34 5.32 2 6 C1.34 6 0.68 6 0 6 C0 7.65 0 9.3 0 11 C-3.63 11 -7.26 11 -11 11 C-11 10.67 -11 10.34 -11 10 C-8.36 9.67 -5.72 9.34 -3 9 C-2.67 8.01 -2.34 7.02 -2 6 C-2.66 6 -3.32 6 -4 6 C-3.67 4.68 -3.34 3.36 -3 2 C-2.01 2 -1.02 2 0 2 C0 1.34 0 0.68 0 0 Z " fill="#2F3030" transform="translate(222,177)"/>
<path d="M0 0 C1.65 0 3.3 0 5 0 C5 2.97 5 5.94 5 9 C3.35 9 1.7 9 0 9 C0 6.03 0 3.06 0 0 Z " fill="#D3893A" transform="translate(343,141)"/>
<path d="M0 0 C1.65 0 3.3 0 5 0 C5 1.65 5 3.3 5 5 C3.68 5 2.36 5 1 5 C1 6.32 1 7.64 1 9 C-0.32 9 -1.64 9 -3 9 C-3 7.35 -3 5.7 -3 4 C-2.01 4 -1.02 4 0 4 C0 2.68 0 1.36 0 0 Z " fill="#C98443" transform="translate(306,159)"/>
<path d="M0 0 C5.28 0 10.56 0 16 0 C16 3.3 16 6.6 16 10 C15.34 8.68 14.68 7.36 14 6 C13.01 5.67 12.02 5.34 11 5 C11 3.68 11 2.36 11 1 C7.7 1 4.4 1 1 1 C0.67 1.66 0.34 2.32 0 3 C0 2.01 0 1.02 0 0 Z " fill="#14102D" transform="translate(332,154)"/>
<path d="M0 0 C1.98 0 3.96 0 6 0 C6 2.31 6 4.62 6 7 C4.02 7 2.04 7 0 7 C0 4.69 0 2.38 0 0 Z " fill="#06070C" transform="translate(327,306)"/>
<path d="M0 0 C1.98 0 3.96 0 6 0 C6 2.31 6 4.62 6 7 C4.02 7 2.04 7 0 7 C0 4.69 0 2.38 0 0 Z " fill="#030206" transform="translate(176,203)"/>
<path d="M0 0 C1.65 0 3.3 0 5 0 C5 0.66 5 1.32 5 2 C9.62 2 14.24 2 19 2 C19 2.33 19 2.66 19 3 C9.6587308 3.61326035 0.36749815 4.1820896 -9 4 C-9 3.67 -9 3.34 -9 3 C-6.36 3 -3.72 3 -1 3 C-0.67 2.01 -0.34 1.02 0 0 Z " fill="#120704" transform="translate(329,137)"/>
<path d="M0 0 C0.66 0 1.32 0 2 0 C2 2.64 2 5.28 2 8 C4.64 8 7.28 8 10 8 C8.68 8.33 7.36 8.66 6 9 C6 10.32 6 11.64 6 13 C4.35 12.67 2.7 12.34 1 12 C0.67 8.04 0.34 4.08 0 0 Z " fill="#4D311C" transform="translate(313,150)"/>
<path d="M0 0 C1.66611905 -0.042721 3.33382885 -0.04063832 5 0 C6 1 6 1 6.125 3.5 C6 6 6 6 5 7 C3.33382885 7.04063832 1.66611905 7.042721 0 7 C0 4.69 0 2.38 0 0 Z " fill="#030403" transform="translate(305,332)"/>
<path d="M0 0 C0.33 0.99 0.66 1.98 1 3 C1.66 3 2.32 3 3 3 C3 5.97 3 8.94 3 12 C4.32 12 5.64 12 7 12 C7.33 12.99 7.66 13.98 8 15 C5.69 14.67 3.38 14.34 1 14 C-0.14806378 4.58997722 -0.14806378 4.58997722 0 0 Z " fill="#171514" transform="translate(299,161)"/>
<path d="M0 0 C5.28 0 10.56 0 16 0 C16 1.65 16 3.3 16 5 C15.67 4.01 15.34 3.02 15 2 C10.71 2 6.42 2 2 2 C1.67 2.99 1.34 3.98 1 5 C0.67 5 0.34 5 0 5 C0 3.35 0 1.7 0 0 Z " fill="#B73349" transform="translate(359,129)"/>
<path d="M0 0 C1.98 0 3.96 0 6 0 C6 1.98 6 3.96 6 6 C3.69 6 1.38 6 -1 6 C-0.67 4.02 -0.34 2.04 0 0 Z " fill="#040607" transform="translate(183,196)"/>
<path d="M0 0 C0.99 0 1.98 0 3 0 C3 1.32 3 2.64 3 4 C2.01 4 1.02 4 0 4 C0 5.65 0 7.3 0 9 C1.32 9 2.64 9 4 9 C4 7.68 4 6.36 4 5 C5.32 5 6.64 5 8 5 C8 5.66 8 6.32 8 7 C7.01 7 6.02 7 5 7 C4.67 8.32 4.34 9.64 4 11 C2.35 10.67 0.7 10.34 -1 10 C-1.125 3.375 -1.125 3.375 0 0 Z " fill="#724726" transform="translate(303,159)"/>
<path d="M0 0 C0.33 0.99 0.66 1.98 1 3 C0.38125 3.70125 -0.2375 4.4025 -0.875 5.125 C-3.71852482 8.97212182 -3.79626618 12.32430874 -4 17 C-6 15 -6 15 -6.15234375 12.5390625 C-5.56659934 4.59423833 -5.56659934 4.59423833 -2.4375 1.3125 C-1.633125 0.879375 -0.82875 0.44625 0 0 Z " fill="#010312" transform="translate(331,193)"/>
<path d="M0 0 C2.97 0 5.94 0 9 0 C7.68 0.33 6.36 0.66 5 1 C5 2.32 5 3.64 5 5 C3.68 5 2.36 5 1 5 C0.67 5.99 0.34 6.98 0 8 C-0.79953138 4.71303767 -1.09658936 3.28976808 0 0 Z " fill="#171526" transform="translate(302,154)"/>
<path d="M0 0 C2.97 0.33 5.94 0.66 9 1 C9 1.66 9 2.32 9 3 C6.03 2.67 3.06 2.34 0 2 C-0.66 3.32 -1.32 4.64 -2 6 C-2.66 6 -3.32 6 -4 6 C-4 6.66 -4 7.32 -4 8 C-5.32 7.67 -6.64 7.34 -8 7 C-7.34 7 -6.68 7 -6 7 C-6 6.01 -6 5.02 -6 4 C-4.68 4 -3.36 4 -2 4 C-1.34 2.68 -0.68 1.36 0 0 Z " fill="#081B48" transform="translate(280,150)"/>
<path d="M0 0 C1.98 0 3.96 0 6 0 C6.33 1.65 6.66 3.3 7 5 C4.69 5 2.38 5 0 5 C0 3.35 0 1.7 0 0 Z " fill="#AF3436" transform="translate(392,135)"/>
<path d="M0 0 C0.66 0 1.32 0 2 0 C2 3.3 2 6.6 2 10 C-0.31 10 -2.62 10 -5 10 C-5 7.69 -5 5.38 -5 3 C-4.67 3 -4.34 3 -4 3 C-4 4.98 -4 6.96 -4 9 C-3.01 8.34 -2.02 7.68 -1 7 C-0.26393501 3.43230448 -0.26393501 3.43230448 0 0 Z " fill="#020818" transform="translate(325,314)"/>
<path d="M0 0 C1.98 0 3.96 0 6 0 C6 1.98 6 3.96 6 6 C4.02 6 2.04 6 0 6 C0 4.02 0 2.04 0 0 Z " fill="#939593" transform="translate(222,183)"/>
<path d="M0 0 C2.64 0 5.28 0 8 0 C8 1.32 8 2.64 8 4 C5.36 4 2.72 4 0 4 C0 2.68 0 1.36 0 0 Z " fill="#E69D4E" transform="translate(331,141)"/>
<path d="M0 0 C0 1.98 0 3.96 0 6 C-3.3 6 -6.6 6 -10 6 C-8.60147088 3.20294175 -6.86348142 3.09085007 -4 2 C-1 0 -1 0 0 0 Z " fill="#333D54" transform="translate(279,52)"/>
<path d="M0 0 C1.32 0.33 2.64 0.66 4 1 C4 3.31 4 5.62 4 8 C2.68 8 1.36 8 0 8 C0 5.36 0 2.72 0 0 Z " fill="#C64831" transform="translate(398,127)"/>
<path d="M0 0 C1.98 0 3.96 0 6 0 C6 1.65 6 3.3 6 5 C4.02 5 2.04 5 0 5 C0 3.35 0 1.7 0 0 Z " fill="#BD3039" transform="translate(353,164)"/>
<path d="M0 0 C0.33 0 0.66 0 1 0 C1 3.3 1 6.6 1 10 C-0.65 10 -2.3 10 -4 10 C-4 8.35 -4 6.7 -4 5 C-2.68 5 -1.36 5 0 5 C0 3.35 0 1.7 0 0 Z " fill="#C98445" transform="translate(319,145)"/>
<path d="M0 0 C1.98 0 3.96 0 6 0 C6 1.65 6 3.3 6 5 C4.02 5 2.04 5 0 5 C0 3.35 0 1.7 0 0 Z " fill="#FBB933" transform="translate(386,135)"/>
<path d="M0 0 C1.98 0 3.96 0 6 0 C6 1.65 6 3.3 6 5 C4.02 5 2.04 5 0 5 C0 3.35 0 1.7 0 0 Z " fill="#F1B635" transform="translate(392,129)"/>
<path d="M0 0 C-0.33 1.32 -0.66 2.64 -1 4 C-3.64 4 -6.28 4 -9 4 C-8.67 3.01 -8.34 2.02 -8 1 C-5.17884816 -0.07009208 -3.09455459 0 0 0 Z " fill="#06070A" transform="translate(221,175)"/>
<path d="M0 0 C2.97 0 5.94 0 9 0 C9 0.66 9 1.32 9 2 C6.69 2 4.38 2 2 2 C1.67 3.65 1.34 5.3 1 7 C-0.32 6.67 -1.64 6.34 -3 6 C-2.01 6 -1.02 6 0 6 C0 4.02 0 2.04 0 0 Z " fill="#071439" transform="translate(323,158)"/>
<path d="M0 0 C0.33 0 0.66 0 1 0 C1 2.97 1 5.94 1 9 C-0.98 9 -2.96 9 -5 9 C-5 7.68 -5 6.36 -5 5 C-3.35 5 -1.7 5 0 5 C0 3.35 0 1.7 0 0 Z " fill="#C5372E" transform="translate(385,145)"/>
<path d="M0 0 C1.98 0 3.96 0 6 0 C6 0.66 6 1.32 6 2 C4.68 2 3.36 2 2 2 C2 4.97 2 7.94 2 11 C1.34 10.67 0.68 10.34 0 10 C0 6.7 0 3.4 0 0 Z " fill="#A8313D" transform="translate(353,135)"/>
<path d="M0 0 C2.31 0 4.62 0 7 0 C7 1.32 7 2.64 7 4 C4.69 4 2.38 4 0 4 C0 2.68 0 1.36 0 0 Z " fill="#050614" transform="translate(195,185)"/>
<path d="M0 0 C0.66 0 1.32 0 2 0 C2 1.65 2 3.3 2 5 C-0.97 5 -3.94 5 -7 5 C-7 4.34 -7 3.68 -7 3 C-5.5459375 2.5359375 -5.5459375 2.5359375 -4.0625 2.0625 C-1.15934208 1.30476658 -1.15934208 1.30476658 0 0 Z " fill="#5B4435" transform="translate(329,150)"/>
<path d="M0 0 C1.65 0 3.3 0 5 0 C4.1875 3.4375 4.1875 3.4375 3 7 C2.01 7.33 1.02 7.66 0 8 C0 5.36 0 2.72 0 0 Z " fill="#F6D421" transform="translate(370,141)"/>
<path d="M0 0 C1.98 0 3.96 0 6 0 C6 1.65 6 3.3 6 5 C4.35 5 2.7 5 1 5 C0.67 3.35 0.34 1.7 0 0 Z " fill="#040606" transform="translate(189,333)"/>
<path d="M0 0 C0.33 0.99 0.66 1.98 1 3 C2.32 3 3.64 3 5 3 C5.0825 3.61875 5.165 4.2375 5.25 4.875 C5.79394438 7.17972859 5.79394438 7.17972859 8 8.0625 C8.66 8.371875 9.32 8.68125 10 9 C10.33 9.99 10.66 10.98 11 12 C10.34 12 9.68 12 9 12 C9 11.34 9 10.68 9 10 C7.35 10 5.7 10 4 10 C4 8.02 4 6.04 4 4 C2.68 4 1.36 4 0 4 C0 2.68 0 1.36 0 0 Z " fill="#0E1C4A" transform="translate(319,165)"/>
<path d="M0 0 C1.65 0 3.3 0 5 0 C5 1.65 5 3.3 5 5 C3.35 5 1.7 5 0 5 C0 3.35 0 1.7 0 0 Z " fill="#01030B" transform="translate(190,190)"/>
<path d="M0 0 C0.99 0 1.98 0 3 0 C3 2.31 3 4.62 3 7 C1.68 6.67 0.36 6.34 -1 6 C-1.042721 4.33388095 -1.04063832 2.66617115 -1 1 C-0.67 0.67 -0.34 0.34 0 0 Z " fill="#F37C25" transform="translate(355,154)"/>
<path d="M0 0 C0 0.99 0 1.98 0 3 C-2.64 3 -5.28 3 -8 3 C-8 2.01 -8 1.02 -8 0 C-2.25 -1.125 -2.25 -1.125 0 0 Z " fill="#6B472C" transform="translate(323,155)"/>
<path d="M0 0 C1.65 0 3.3 0 5 0 C5 1.65 5 3.3 5 5 C3.35 5 1.7 5 0 5 C0 3.35 0 1.7 0 0 Z " fill="#C73130" transform="translate(386,140)"/>
<path d="M0 0 C0.33 0 0.66 0 1 0 C1 4.29 1 8.58 1 13 C0.01 13 -0.98 13 -2 13 C-2 11.02 -2 9.04 -2 7 C-1.34 7 -0.68 7 0 7 C0 4.69 0 2.38 0 0 Z " fill="#6F758B" transform="translate(278,39)"/>
<path d="M0 0 C1.65 0 3.3 0 5 0 C5 1.65 5 3.3 5 5 C3.35 4.67 1.7 4.34 0 4 C0 2.68 0 1.36 0 0 Z " fill="#1E1A1B" transform="translate(293,165)"/>
<path d="M0 0 C0.33 0 0.66 0 1 0 C1 1.98 1 3.96 1 6 C-0.65 6 -2.3 6 -4 6 C-4 4.35 -4 2.7 -4 1 C-2.68 1.33 -1.36 1.66 0 2 C0 1.34 0 0.68 0 0 Z " fill="#200811" transform="translate(352,139)"/>
<path d="M0 0 C0.66 0 1.32 0 2 0 C1.67 3.3 1.34 6.6 1 10 C-0.65 10 -2.3 10 -4 10 C-2.68 9.67 -1.36 9.34 0 9 C-0.185625 7.700625 -0.37125 6.40125 -0.5625 5.0625 C-0.87890625 2.84765625 -0.87890625 2.84765625 -1 1 C-0.67 0.67 -0.34 0.34 0 0 Z " fill="#EB702D" transform="translate(384,140)"/>
<path d="M0 0 C2.64 0 5.28 0 8 0 C7.67 0.99 7.34 1.98 7 3 C4.69 3 2.38 3 0 3 C0 2.01 0 1.02 0 0 Z " fill="#020001" transform="translate(321,137)"/>
<path d="M0 0 C2.31 0 4.62 0 7 0 C7 0.99 7 1.98 7 3 C4.69 3 2.38 3 0 3 C0 2.01 0 1.02 0 0 Z " fill="#010411" transform="translate(196,340)"/>
<path d="M0 0 C0.99 0 1.98 0 3 0 C3 2.31 3 4.62 3 7 C2.01 7 1.02 7 0 7 C0 4.69 0 2.38 0 0 Z " fill="#D22B2A" transform="translate(386,155)"/>
<path d="M0 0 C1.65 0 3.3 0 5 0 C4.01 0.495 4.01 0.495 3 1 C3 2.98 3 4.96 3 7 C2.01 7 1.02 7 0 7 C0 4.69 0 2.38 0 0 Z " fill="#1D1C1E" transform="translate(195,333)"/>
<path d="M0 0 C1.65 0 3.3 0 5 0 C5 1.32 5 2.64 5 4 C3.35 4 1.7 4 0 4 C0 2.68 0 1.36 0 0 Z " fill="#5F4729" transform="translate(343,150)"/>
<path d="M0 0 C1.32 0 2.64 0 4 0 C4 1.65 4 3.3 4 5 C2.68 5 1.36 5 0 5 C0 3.35 0 1.7 0 0 Z " fill="#63432B" transform="translate(315,145)"/>
<path d="M0 0 C2.31 0 4.62 0 7 0 C7 0.99 7 1.98 7 3 C5.02 3 3.04 3 1 3 C0.67 2.01 0.34 1.02 0 0 Z " fill="#040A13" transform="translate(203,343)"/>
<path d="M0 0 C2.625 -0.1875 2.625 -0.1875 5 0 C5 0.99 5 1.98 5 3 C2.69 3 0.38 3 -2 3 C-1.34 2.01 -0.68 1.02 0 0 Z " fill="#010101" transform="translate(206,181)"/>
<path d="M0 0 C0.99 0.33 1.98 0.66 3 1 C3 1.66 3 2.32 3 3 C3.99 3.33 4.98 3.66 6 4 C3 5 3 5 1 5 C1 4.34 1 3.68 1 3 C0.01 2.67 -0.98 2.34 -2 2 C-1.34 1.34 -0.68 0.68 0 0 Z " fill="#3A3A3A" transform="translate(283,168)"/>
<path d="M0 0 C0.33 0 0.66 0 1 0 C1.33 1.65 1.66 3.3 2 5 C2.99 5.33 3.98 5.66 5 6 C5 6.66 5 7.32 5 8 C3.35 8 1.7 8 0 8 C0 5.36 0 2.72 0 0 Z " fill="#000216" transform="translate(169,307)"/>
<path d="M0 0 C0.33 0.99 0.66 1.98 1 3 C1.66 3 2.32 3 3 3 C3 5.31 3 7.62 3 10 C-0.00617269 6.99382731 0.40414684 4.17618402 0 0 Z " fill="#1E140B" transform="translate(299,161)"/>
<path d="M0 0 C0.99 0 1.98 0 3 0 C3.33 1.65 3.66 3.3 4 5 C2.68 5 1.36 5 0 5 C0 3.35 0 1.7 0 0 Z " fill="#6F4526" transform="translate(311,159)"/>
<path d="M0 0 C1.32 0 2.64 0 4 0 C4.33 0.99 4.66 1.98 5 3 C3.35 3.33 1.7 3.66 0 4 C0 2.68 0 1.36 0 0 Z " fill="#6A482C" transform="translate(307,155)"/>
<path d="" fill="#BFBFBF" transform="translate(0,0)"/>
</svg>
